<?xml version="1.0" encoding="UTF-8" standalone="no"?>
<!-- Created with Inkscape (http://www.inkscape.org/) -->

<svg
   width="100mm"
   height="100mm"
   viewBox="0 0 100 100"
   version="1.1"
   id="svg3242"
   inkscape:version="1.2.2 (732a01da63, 2022-12-09)"
   sodipodi:docname="btn-img-reset.svg"
   inkscape:export-filename="Svelte\sv-kit\web\src\lib\btn-img-start.png"
   inkscape:export-xdpi="7.6199999"
   inkscape:export-ydpi="7.6199999"
   xmlns:inkscape="http://www.inkscape.org/namespaces/inkscape"
   xmlns:sodipodi="http://sodipodi.sourceforge.net/DTD/sodipodi-0.dtd"
   xmlns:xlink="http://www.w3.org/1999/xlink"
   xmlns="http://www.w3.org/2000/svg"
   xmlns:svg="http://www.w3.org/2000/svg">
  <sodipodi:namedview
     id="namedview3244"
     pagecolor="#ffffff"
     bordercolor="#666666"
     borderopacity="1.0"
     inkscape:showpageshadow="2"
     inkscape:pageopacity="0.0"
     inkscape:pagecheckerboard="true"
     inkscape:deskcolor="#d1d1d1"
     inkscape:document-units="mm"
     showgrid="false"
     inkscape:zoom="2.1089996"
     inkscape:cx="162.39927"
     inkscape:cy="81.081096"
     inkscape:window-width="1920"
     inkscape:window-height="1017"
     inkscape:window-x="3832"
     inkscape:window-y="-8"
     inkscape:window-maximized="1"
     inkscape:current-layer="layer1" />
  <defs
     id="defs3239">
    <linearGradient
       inkscape:collect="always"
       id="linearGradient4008">
      <stop
         style="stop-color:#e6e6e6;stop-opacity:0.60000002;"
         offset="0"
         id="stop4004" />
      <stop
         style="stop-color:#e6e6e6;stop-opacity:0;"
         offset="1"
         id="stop4006" />
    </linearGradient>
    <linearGradient
       inkscape:collect="always"
       xlink:href="#linearGradient4008"
       id="linearGradient4010"
       x1="50.255611"
       y1="117.32954"
       x2="49.88274"
       y2="50.750202"
       gradientUnits="userSpaceOnUse"
       gradientTransform="matrix(0.9276027,0,0,1.0162686,-46.380138,17.375713)" />
  </defs>
  <g
     inkscape:label="Layer 1"
     inkscape:groupmode="layer"
     id="layer1">
    <path
       id="path347"
       style="fill:#32e6e6;stroke-width:3.62988;stroke-opacity:0.7;fill-opacity:1"
       d="M 49.980929 3.7728963 L 34.980811 18.773014 L 49.980929 33.772616 L 49.980929 25.022762 A 24.999924 24.999903 0 0 1 74.980953 50.022786 A 24.999924 24.999903 0 0 1 72.118079 61.602441 A 24.999899 24.999878 0 0 1 71.98682 61.849455 A 24.999924 24.999903 0 0 1 70.834953 63.789905 A 24.999899 24.999878 0 0 1 70.776042 63.884989 A 24.999924 24.999903 0 0 1 69.37251 65.789266 A 24.999899 24.999878 0 0 1 69.135832 66.064185 A 24.999924 24.999903 0 0 1 67.890946 67.442395 A 24.999899 24.999878 0 0 1 67.658403 67.70026 L 76.497656 76.539514 A 37.5 37.5 0 0 0 76.497656 23.506576 A 37.5 37.5 0 0 0 49.980929 12.527401 L 49.980929 3.7728963 z M 23.464718 23.506576 A 37.5 37.5 0 0 0 12.481409 50.022786 A 37.5 37.5 0 0 0 23.464718 76.538997 A 37.5 37.5 0 0 0 49.980929 87.522823 L 49.980929 96.272677 L 64.981047 81.272559 L 49.980929 66.272957 L 49.980929 75.022811 A 24.999924 24.999903 0 0 1 24.980904 50.022786 A 24.999924 24.999903 0 0 1 32.286401 32.364433 A 24.999899 24.999878 0 0 1 32.303455 32.345829 L 23.464718 23.506576 z " />
    <ellipse
       style="fill:url(#linearGradient4010);fill-opacity:1;stroke-width:1.24089"
       id="circle3946"
       cx="1.6021567e-06"
       cy="84.687103"
       rx="34.568161"
       ry="26.693441"
       transform="matrix(-0.70710678,0.70710678,0.70710678,0.70710678,0,0)" />
    <path
       id="path243"
       style="fill:#1e1e1e;fill-opacity:0.8;stroke-width:1.67322"
       d="m -185.19227,51.892234 a 50,50 0 0 0 0.43098,4.732527 50,50 0 0 0 0.19431,1.288811 50,50 0 0 0 0.78341,3.91036 50,50 0 0 0 0.1881,0.82424 50,50 0 0 0 1.4149,4.502559 50,50 0 0 0 0.42788,1.089341 50,50 0 0 0 1.52653,3.4985 50,50 0 0 0 0.50694,1.052649 50,50 0 0 0 2.33836,4.101041 50,50 0 0 0 0.47543,0.69711 50,50 0 0 0 2.3368,3.238559 50,50 0 0 0 0.80616,1.010801 50,50 0 0 0 3.18017,3.539309 50,50 0 0 0 3.39463,3.05666 50,50 0 0 0 1.10536,0.888841 50,50 0 0 0 2.97139,2.158519 50,50 0 0 0 0.8413,0.58343 50,50 0 0 0 3.68504,2.12752 50,50 0 0 0 1.60146,0.79995 50,50 0 0 0 2.67064,1.18908 50,50 0 0 0 1.58905,0.65629 50,50 0 0 0 3.78065,1.22886 50,50 0 0 0 2.08308,0.52969 50,50 0 0 0 2.28616,0.48627 50,50 0 0 0 2.1978,0.39481 50,50 0 0 0 3.70055,0.38861 50,50 0 0 0 2.49029,0.08733 50,50 0 0 0 36.313049,-14.57586 50,50 0 0 0 3.126942,-3.472139 50,50 0 0 0 0.815454,-1.02267 50,50 0 0 0 2.19418,-3.02049 50,50 0 0 0 0.59273,-0.8692 50,50 0 0 0 2.31562,-4.01164 50,50 0 0 0 0.456302,-0.94671 50,50 0 0 0 1.518256,-3.410651 50,50 0 0 0 0.476973,-1.214909 50,50 0 0 0 1.444355,-4.446241 50,50 0 0 0 0.972551,-4.5744 50,50 0 0 0 0.193787,-1.286219 50,50 0 0 0 0.39119,-3.719156 50,50 0 0 0 0.07803,-1.043348 50,50 0 0 0 -1e-6,-4.635375 50,50 0 0 0 -0.07803,-1.043348 50,50 0 0 0 -0.391191,-3.719152 50,50 0 0 0 -0.193787,-1.286227 50,50 0 0 0 -0.972551,-4.574397 50,50 0 0 0 -1.444355,-4.44624 50,50 0 0 0 -0.476973,-1.214913 50,50 0 0 0 -1.518255,-3.410645 50,50 0 0 0 -0.456303,-0.946713 50,50 0 0 0 -2.315621,-4.01164 50,50 0 0 0 -0.592728,-0.869199 50,50 0 0 0 -2.194181,-3.020486 50,50 0 0 0 -0.815454,-1.022677 50,50 0 0 0 -3.126941,-3.472139 50,50 0 0 0 -1.274338,-1.229383 50,50 0 0 0 -0.0103,-0.0098 50,50 0 0 0 -0.0155,-0.01394 50,50 0 0 0 -1.26814,-1.139463 50,50 0 0 0 -0.0878,-0.07597 50,50 0 0 0 -1.26504,-1.057298 50,50 0 0 0 -0.10128,-0.08268 50,50 0 0 0 -1.32964,-1.032496 50,50 0 0 0 -5.2e-4,-5.17e-4 50,50 0 0 0 -0.10387,-0.077007 50,50 0 0 0 -1.32085,-0.9518796 50,50 0 0 0 -0.13074,-0.090947 50,50 0 0 0 -1.32809,-0.8872847 50,50 0 0 0 -0.1633,-0.1054162 50,50 0 0 0 -1.32291,-0.8175215 50,50 0 0 0 -0.22686,-0.1348771 50,50 0 0 0 -1.35703,-0.7730784 50,50 0 0 0 -0.0119,-0.00622 50,50 0 0 0 -0.19481,-0.1054239 50,50 0 0 0 -1.33481,-0.6986661 50,50 0 0 0 -0.27491,-0.1369446 50,50 0 0 0 -1.3224,-0.6325205 50,50 0 0 0 -0.24391,-0.1121372 50,50 0 0 0 -1.3808,-0.6009955 50,50 0 0 0 -0.31316,-0.1297082 50,50 0 0 0 -1.36064,-0.5353682 50,50 0 0 0 -0.009,-0.00311 50,50 0 0 0 -0.30696,-0.113688 50,50 0 0 0 -1.3069,-0.4614699 50,50 0 0 0 -0.38705,-0.1291919 50,50 0 0 0 -1.27383,-0.3989419 50,50 0 0 0 -0.46664,-0.1374587 50,50 0 0 0 -1.29294,-0.3539833 50,50 0 0 0 -0.43202,-0.1100711 50,50 0 0 0 -1.31516,-0.3110916 50,50 0 0 0 -0.0109,-0.00212 50,50 0 0 0 -0.41858,-0.09043 50,50 0 0 0 -1.26969,-0.25269806 50,50 0 0 0 -0.44029,-0.0800997 50,50 0 0 0 -0.0217,-0.003599 50,50 0 0 0 -1.26505,-0.20458842 50,50 0 0 0 -0.56586,-0.0816496 50,50 0 0 0 -1.18287,-0.1488283 50,50 0 0 0 -0.59531,-0.0640794 50,50 0 0 0 -1.25522,-0.11162105 50,50 0 0 0 -0.4899,-0.0346199 50,50 0 0 0 -1.22732,-0.06563012 50,50 0 0 0 -0.61494,-0.02170959 50,50 0 0 0 -1.12604,-0.02015042 50,50 0 0 0 -0.33796,-0.0020994 v -0.0041012 a 50,50 0 0 0 -35.35497,14.64458526 50,50 0 0 0 0,5.15e-4 50,50 0 0 0 -0.0171,0.01809 50,50 0 0 0 -3.05924,3.391505 50,50 0 0 0 -0.83148,1.042831 50,50 0 0 0 -2.09444,2.865458 50,50 0 0 0 -0.66249,0.972034 50,50 0 0 0 -2.30426,3.947562 50,50 0 0 0 -0.37259,0.774113 50,50 0 0 0 -1.56424,3.452503 50,50 0 0 0 -0.49868,1.270206 50,50 0 0 0 -1.20974,3.619418 50,50 0 0 0 -0.24495,0.793233 50,50 0 0 0 -0.99736,4.465877 50,50 0 0 0 -0.17621,1.167888 50,50 0 0 0 -0.41445,3.532601 50,50 0 0 0 -0.0982,1.30793 50,50 0 0 0 -0.0646,4.603336 z m 12.4654,-1.869653 a 37.5,37.5 0 0 1 10.98331,-26.516211 l 8.83874,8.839253 a 24.999899,24.999878 0 0 0 -0.017,0.0186 24.999924,24.999903 0 0 0 -7.3055,17.658357 24.999924,24.999903 0 0 0 25.00004,25.000021 v -8.74985 l 15.00013,14.9996 -15.00013,15.00012 v -8.74985 a 37.5,37.5 0 0 1 -26.51628,-10.983829 37.5,37.5 0 0 1 -10.98331,-26.516211 z m 22.49941,-31.249773 15.00013,-15.0001174 v 8.7545054 a 37.5,37.5 0 0 1 26.51674,10.979174 37.5,37.5 0 0 1 0,53.032942 l -8.83926,-8.839261 a 24.999899,24.999878 0 0 0 0.23254,-0.257859 24.999924,24.999903 0 0 0 1.24489,-1.378207 24.999899,24.999878 0 0 0 0.23668,-0.274919 24.999924,24.999903 0 0 0 1.40354,-1.90428 24.999899,24.999878 0 0 0 0.0589,-0.09508 24.999924,24.999903 0 0 0 1.15186,-1.940449 24.999899,24.999878 0 0 0 0.13127,-0.247017 24.999924,24.999903 0 0 0 2.86287,-11.579651 24.999924,24.999903 0 0 0 -25.00004,-25.000023 v 8.749853 z" />
  </g>
</svg>
