<?xml version="1.0" encoding="UTF-8" standalone="no"?>
<!-- Created with Inkscape (http://www.inkscape.org/) -->

<svg
   width="100mm"
   height="100mm"
   viewBox="0 0 100 100"
   version="1.1"
   id="svg3242"
   inkscape:version="1.2.2 (732a01da63, 2022-12-09)"
   sodipodi:docname="btn-img-edit.svg"
   inkscape:export-filename="Svelte\sv-kit\web\src\lib\btn-img-start.png"
   inkscape:export-xdpi="7.6199999"
   inkscape:export-ydpi="7.6199999"
   xmlns:inkscape="http://www.inkscape.org/namespaces/inkscape"
   xmlns:sodipodi="http://sodipodi.sourceforge.net/DTD/sodipodi-0.dtd"
   xmlns:xlink="http://www.w3.org/1999/xlink"
   xmlns="http://www.w3.org/2000/svg"
   xmlns:svg="http://www.w3.org/2000/svg">
  <sodipodi:namedview
     id="namedview3244"
     pagecolor="#ffffff"
     bordercolor="#666666"
     borderopacity="1.0"
     inkscape:showpageshadow="2"
     inkscape:pageopacity="0.0"
     inkscape:pagecheckerboard="true"
     inkscape:deskcolor="#d1d1d1"
     inkscape:document-units="mm"
     showgrid="false"
     inkscape:zoom="0.74564396"
     inkscape:cx="-168.31089"
     inkscape:cy="236.03759"
     inkscape:window-width="1920"
     inkscape:window-height="1017"
     inkscape:window-x="1912"
     inkscape:window-y="-8"
     inkscape:window-maximized="1"
     inkscape:current-layer="layer1" />
  <defs
     id="defs3239">
    <linearGradient
       inkscape:collect="always"
       id="linearGradient4008">
      <stop
         style="stop-color:#e6e6e6;stop-opacity:0.60000002;"
         offset="0"
         id="stop4004" />
      <stop
         style="stop-color:#e6e6e6;stop-opacity:0;"
         offset="1"
         id="stop4006" />
    </linearGradient>
    <linearGradient
       inkscape:collect="always"
       xlink:href="#linearGradient4008"
       id="linearGradient4010"
       x1="50.255611"
       y1="117.32954"
       x2="49.88274"
       y2="50.750202"
       gradientUnits="userSpaceOnUse"
       gradientTransform="matrix(0.9276027,0,0,1.0162686,-46.380138,17.375713)" />
  </defs>
  <g
     inkscape:label="Layer 1"
     inkscape:groupmode="layer"
     id="layer1">
    <path
       id="path348"
       style="fill:#afafaf;fill-opacity:1;stroke-width:3.1445;stroke-opacity:0.7"
       d="M 66.825895 20.643701 C 66.099896 20.643701 65.374038 20.921988 64.817749 21.478276 L 63.067468 23.22804 L 62.280436 24.015588 L 59.641838 26.654187 L 73.344877 40.35671 L 75.983476 37.718111 L 76.770508 36.931079 L 78.520272 35.181315 C 79.632851 34.068742 79.632851 32.276569 78.520272 31.163989 L 68.834041 21.478276 C 68.277752 20.921985 67.551884 20.643702 66.825895 20.643701 z M 58.599524 27.696501 L 56.216207 30.079818 L 69.919246 43.78234 L 72.302047 41.399023 L 58.599524 27.696501 z M 54.91086 31.385164 L 27.424683 58.871342 L 27.130127 60.543075 A 5.3208213 22.277499 45 0 1 28.178642 60.969922 A 5.3208213 22.277499 45 0 1 28.18536 64.235356 L 28.225667 64.275663 L 58.013513 34.487817 L 54.91086 31.385164 z M 59.205172 35.679476 L 29.417326 65.467322 L 29.426628 65.476624 A 8.1082248 36.547311 45 0 1 34.683671 65.31901 A 8.1082248 36.547311 45 0 1 34.48575 70.535229 L 34.530709 70.580705 L 64.318555 40.792859 L 59.205172 35.679476 z M 65.510213 41.985034 L 35.722884 71.772363 L 35.742521 71.792 A 5.3208213 22.277499 45 0 1 39.033793 71.825073 A 5.3208213 22.277499 45 0 1 39.437903 72.872555 L 41.127722 72.574382 L 68.6139 45.088204 L 65.510213 41.985034 z M 23.208919 71.66746 L 20.645768 79.35588 L 28.310933 76.80048 A 8.1078604 8.1078604 0 0 0 26.378752 73.622896 A 8.1078604 8.1078604 0 0 0 23.208919 71.66746 z " />
    <ellipse
       style="fill:url(#linearGradient4010);fill-opacity:1;stroke-width:1.24089"
       id="circle3946"
       cx="1.6021567e-06"
       cy="84.687103"
       rx="34.568161"
       ry="26.693441"
       transform="matrix(-0.70710678,0.70710678,0.70710678,0.70710678,0,0)" />
    <path
       id="path8872"
       style="fill:#1e1e1e;fill-opacity:0.8;stroke-width:1.67322"
       d="m -120.42114,-4.3921981 a 50,50 0 0 0 -33.48581,14.6099611 50,50 0 0 0 0,70.71041 50,50 0 0 0 70.710932,0 50,50 0 0 0 0,-70.71041 50,50 0 0 0 -37.225122,-14.6099611 z m 1.86965,12.464872 a 37.5,37.5 0 0 1 26.516222,10.9833091 37.5,37.5 0 0 1 0,53.03294 37.5,37.5 0 0 1 -53.032942,0 37.5,37.5 0 0 1 5.1e-4,-53.03294 37.5,37.5 0 0 1 26.51621,-10.9833091 z m 15.87759,10.0562341 c -0.63948,-2e-6 -1.27892,0.244869 -1.76889,0.734838 l -1.5415,1.540992 -0.69298,0.693497 -2.32389,2.32389 12.069032,12.06903 2.32389,-2.323889 0.69298,-0.693498 1.5415,-1.540991 c 0.97993,-0.979939 0.97994,-2.557839 0,-3.537768 l -8.531262,-8.531263 c -0.48997,-0.489974 -1.1294,-0.734837 -1.76888,-0.734838 z m -7.24555,6.211507 -2.0991,2.099096 12.069032,12.069031 2.0991,-2.099096 z m -3.2489,3.248897 -24.20938,24.209371 -0.25993,1.47227 a 4.686473,19.621575 45 0 1 0.92398,0.37568 4.686473,19.621575 45 0 1 0.006,2.87683 l 0.0357,0.03514 26.23664,-26.236641 z m 3.7822,3.782198 -26.23664,26.236643 0.008,0.0083 a 7.1415623,32.190141 45 0 1 4.63021,-0.13901 7.1415623,32.190141 45 0 1 -0.17466,4.59455 l 0.0403,0.04031 26.23664,-26.236645 z m 5.55366,5.553666 -26.23664,26.236637 0.0171,0.01706 a 4.686473,19.621575 45 0 1 2.89957,0.02894 4.686473,19.621575 45 0 1 0.35553,0.92242 l 1.48828,-0.26252 24.20938,-24.20937 z m -36.62257,24.240897 -2.89233,8.67596 8.6496,-2.88355 a 9.1488619,9.1488619 0 0 0 -2.18023,-3.58583 9.1488619,9.1488619 0 0 0 -3.57704,-2.20658 z" />
    <path
       id="path244"
       style="fill:#1e1e1e;fill-opacity:0.8;stroke-width:1.03265"
       d="m -119.33335,100.54162 a 50,50 0 0 0 -50.00008,50.00008 50,50 0 0 0 50.00008,50.00008 50,50 0 0 0 50.000057,-50.00008 50,50 0 0 0 -50.000057,-50.00008 z m 16.82586,20.64372 c 0.72599,0 1.45185,0.27828 2.00814,0.83457 l 9.686224,9.68572 c 1.11258,1.11258 1.11258,2.90475 0,4.01733 l -1.74976,1.74976 -0.78703,0.78704 -2.638597,2.63859 -13.703037,-13.70252 2.6386,-2.63861 0.78702,-0.78754 1.75029,-1.74977 c 0.55629,-0.55629 1.28215,-0.83457 2.00815,-0.83457 z m -8.22638,7.0528 13.702527,13.70253 -2.3828,2.38332 -13.703047,-13.70253 z m -3.68867,3.68867 3.10266,3.10265 -29.78786,29.78787 -0.0403,-0.0403 a 5.3208213,22.277499 45 0 0 -0.007,-3.26544 5.3208213,22.277499 45 0 0 -1.04851,-0.42685 l 0.29455,-1.67173 z m 4.29432,4.29431 5.11339,5.11338 -29.78787,29.78787 -0.045,-0.0455 a 8.1082248,36.547311 45 0 0 0.19792,-5.21622 8.1082248,36.547311 45 0 0 -5.25704,0.15762 l -0.009,-0.009 z m 6.30505,6.30556 3.10368,3.10317 -27.4862,27.48619 -1.68981,0.29818 a 5.3208213,22.277499 45 0 0 -0.40411,-1.04748 5.3208213,22.277499 45 0 0 -3.29128,-0.0331 l -0.0196,-0.0196 z m -42.30133,29.68244 a 8.1078604,8.1078604 0 0 1 3.16983,1.95544 8.1078604,8.1078604 0 0 1 1.9322,3.17758 l -7.66518,2.55541 z" />
  </g>
</svg>
