<?xml version="1.0" encoding="UTF-8" standalone="no"?>
<!-- Created with Inkscape (http://www.inkscape.org/) -->

<svg
   width="100mm"
   height="100mm"
   viewBox="0 0 100 100"
   version="1.1"
   id="svg3242"
   inkscape:version="1.2.1 (9c6d41e410, 2022-07-14)"
   sodipodi:docname="btn-img-report.svg"
   inkscape:export-filename="Svelte\sv-kit\web\src\lib\btn-img-start.png"
   inkscape:export-xdpi="7.6199999"
   inkscape:export-ydpi="7.6199999"
   xmlns:inkscape="http://www.inkscape.org/namespaces/inkscape"
   xmlns:sodipodi="http://sodipodi.sourceforge.net/DTD/sodipodi-0.dtd"
   xmlns:xlink="http://www.w3.org/1999/xlink"
   xmlns="http://www.w3.org/2000/svg"
   xmlns:svg="http://www.w3.org/2000/svg">
  <sodipodi:namedview
     id="namedview3244"
     pagecolor="#ffffff"
     bordercolor="#666666"
     borderopacity="1.0"
     inkscape:showpageshadow="2"
     inkscape:pageopacity="0.0"
     inkscape:pagecheckerboard="true"
     inkscape:deskcolor="#d1d1d1"
     inkscape:document-units="mm"
     showgrid="false"
     inkscape:zoom="0.74564396"
     inkscape:cx="-91.866901"
     inkscape:cy="234.69646"
     inkscape:window-width="1920"
     inkscape:window-height="1017"
     inkscape:window-x="1918"
     inkscape:window-y="-8"
     inkscape:window-maximized="1"
     inkscape:current-layer="layer1" />
  <defs
     id="defs3239">
    <linearGradient
       inkscape:collect="always"
       id="linearGradient4008">
      <stop
         style="stop-color:#e6e6e6;stop-opacity:0.60000002;"
         offset="0"
         id="stop4004" />
      <stop
         style="stop-color:#e6e6e6;stop-opacity:0;"
         offset="1"
         id="stop4006" />
    </linearGradient>
    <linearGradient
       inkscape:collect="always"
       xlink:href="#linearGradient4008"
       id="linearGradient4010"
       x1="50.255611"
       y1="117.32954"
       x2="49.88274"
       y2="50.750202"
       gradientUnits="userSpaceOnUse"
       gradientTransform="matrix(0.9276027,0,0,1.0162686,-46.380138,17.375713)" />
  </defs>
  <g
     inkscape:label="Layer 1"
     inkscape:groupmode="layer"
     id="layer1">
    <path
       id="path9140"
       style="fill:#1e1e1e;fill-opacity:0.8;stroke-width:1.03265"
       d="M 50,-4.85e-5 A 50,50 0 0 0 -5e-5,49.999998 50,50 0 0 0 50,100.00005 50,50 0 0 0 100.00005,49.999998 50,50 0 0 0 50,-4.85e-5 Z M 66.82585,20.643652 c 0.72599,1e-6 1.45185,0.278284 2.00814,0.834575 l 9.68623,9.685714 c 1.11258,1.112581 1.11258,2.904751 0,4.017325 l -1.74976,1.749764 -0.78703,0.787032 -2.6386,2.638599 -13.70304,-13.702523 2.6386,-2.638598 0.78703,-0.787549 1.75028,-1.749764 c 0.55629,-0.556288 1.28215,-0.834575 2.00815,-0.834575 z m -8.22637,7.0528 L 72.302,41.398975 69.9192,43.782292 56.21616,30.079769 Z m -3.68867,3.688664 3.10266,3.102653 -29.78785,29.78785 -0.04031,-0.0403 a 5.3208213,22.277499 45 0 0 -0.0067,-3.26543 5.3208213,22.277499 45 0 0 -1.04851,-0.42685 l 0.29455,-1.67173 z m 4.29431,4.294311 5.11339,5.113383 -29.78785,29.787848 -0.04496,-0.0455 a 8.1082248,36.547311 45 0 0 0.19792,-5.216219 8.1082248,36.547311 45 0 0 -5.25704,0.157619 l -0.0093,-0.009 z m 6.30505,6.305559 3.10368,3.103169 -27.48618,27.486174 -1.68981,0.29818 a 5.3208213,22.277499 45 0 0 -0.40411,-1.04748 5.3208213,22.277499 45 0 0 -3.29128,-0.0331 l -0.01963,-0.0196 z m -42.3013,29.682422 a 8.1078604,8.1078604 0 0 1 3.16983,1.955441 8.1078604,8.1078604 0 0 1 1.93219,3.17758 l -7.66517,2.555399 z" />
    <ellipse
       style="fill:url(#linearGradient4010);fill-opacity:1;stroke-width:1.24089"
       id="circle3946"
       cx="1.6021567e-06"
       cy="84.687103"
       rx="34.568161"
       ry="26.693441"
       transform="matrix(-0.70710678,0.70710678,0.70710678,0.70710678,0,0)" />
    <path
       id="path8872"
       style="fill:#1e1e1e;fill-opacity:0.8;stroke-width:1.67322"
       d="m -120.42114,-4.3921981 a 50,50 0 0 0 -33.48581,14.6099611 50,50 0 0 0 0,70.71041 50,50 0 0 0 70.710932,0 50,50 0 0 0 0,-70.71041 50,50 0 0 0 -37.225122,-14.6099611 z m 1.86965,12.464872 a 37.5,37.5 0 0 1 26.516222,10.9833091 37.5,37.5 0 0 1 0,53.03294 37.5,37.5 0 0 1 -53.032942,0 37.5,37.5 0 0 1 5.1e-4,-53.03294 37.5,37.5 0 0 1 26.51621,-10.9833091 z m 15.87759,10.0562341 c -0.63948,-2e-6 -1.27892,0.244869 -1.76889,0.734838 l -1.5415,1.540992 -0.69298,0.693497 -2.32389,2.32389 12.069032,12.06903 2.32389,-2.323889 0.69298,-0.693498 1.5415,-1.540991 c 0.97993,-0.979939 0.97994,-2.557839 0,-3.537768 l -8.531262,-8.531263 c -0.48997,-0.489974 -1.1294,-0.734837 -1.76888,-0.734838 z m -7.24555,6.211507 -2.0991,2.099096 12.069032,12.069031 2.0991,-2.099096 z m -3.2489,3.248897 -24.20938,24.209371 -0.25993,1.47227 a 4.686473,19.621575 45 0 1 0.92398,0.37568 4.686473,19.621575 45 0 1 0.006,2.87683 l 0.0357,0.03514 26.23664,-26.236641 z m 3.7822,3.782198 -26.23664,26.236643 0.008,0.0083 a 7.1415623,32.190141 45 0 1 4.63021,-0.13901 7.1415623,32.190141 45 0 1 -0.17466,4.59455 l 0.0403,0.04031 26.23664,-26.236645 z m 5.55366,5.553666 -26.23664,26.236637 0.0171,0.01706 a 4.686473,19.621575 45 0 1 2.89957,0.02894 4.686473,19.621575 45 0 1 0.35553,0.92242 l 1.48828,-0.26252 24.20938,-24.20937 z m -36.62257,24.240897 -2.89233,8.67596 8.6496,-2.88355 a 9.1488619,9.1488619 0 0 0 -2.18023,-3.58583 9.1488619,9.1488619 0 0 0 -3.57704,-2.20658 z" />
  </g>
</svg>
