<?xml version="1.0" encoding="UTF-8" standalone="no"?>
<!-- Created with Inkscape (http://www.inkscape.org/) -->

<svg
   width="100mm"
   height="100mm"
   viewBox="0 0 100 100"
   version="1.1"
   id="svg3242"
   inkscape:version="1.2.1 (9c6d41e410, 2022-07-14)"
   sodipodi:docname="btn-img-connect.svg"
   inkscape:export-filename="Svelte\sv-kit\web\src\lib\btn-img-start.png"
   inkscape:export-xdpi="7.6199999"
   inkscape:export-ydpi="7.6199999"
   xmlns:inkscape="http://www.inkscape.org/namespaces/inkscape"
   xmlns:sodipodi="http://sodipodi.sourceforge.net/DTD/sodipodi-0.dtd"
   xmlns:xlink="http://www.w3.org/1999/xlink"
   xmlns="http://www.w3.org/2000/svg"
   xmlns:svg="http://www.w3.org/2000/svg">
  <sodipodi:namedview
     id="namedview3244"
     pagecolor="#ffffff"
     bordercolor="#666666"
     borderopacity="1.0"
     inkscape:showpageshadow="2"
     inkscape:pageopacity="0.0"
     inkscape:pagecheckerboard="true"
     inkscape:deskcolor="#d1d1d1"
     inkscape:document-units="mm"
     showgrid="false"
     inkscape:zoom="0.37282198"
     inkscape:cx="-478.78078"
     inkscape:cy="472.07517"
     inkscape:window-width="1920"
     inkscape:window-height="1017"
     inkscape:window-x="1912"
     inkscape:window-y="1072"
     inkscape:window-maximized="1"
     inkscape:current-layer="layer1" />
  <defs
     id="defs3239">
    <linearGradient
       inkscape:collect="always"
       id="linearGradient4008">
      <stop
         style="stop-color:#e6e6e6;stop-opacity:0.60000002;"
         offset="0"
         id="stop4004" />
      <stop
         style="stop-color:#e6e6e6;stop-opacity:0;"
         offset="1"
         id="stop4006" />
    </linearGradient>
    <linearGradient
       inkscape:collect="always"
       xlink:href="#linearGradient4008"
       id="linearGradient4010"
       x1="50.255611"
       y1="117.32954"
       x2="49.88274"
       y2="50.750202"
       gradientUnits="userSpaceOnUse"
       gradientTransform="matrix(0.9276027,0,0,1.0162686,-46.380138,17.375713)" />
  </defs>
  <g
     inkscape:label="Layer 1"
     inkscape:groupmode="layer"
     id="layer1">
    <path
       id="path1397"
       style="fill:#dc193c;fill-opacity:1;stroke-width:2.40987"
       d="m -126.36611,3.6114126 0.86817,49.6558804 h 6.50813 l 0.9157,-49.6558804 z m -3.25716,3.1719 a 64.999935,64.999935 0 0 0 -11.2913,2.33784 40,40 0 0 0 -18.00821,19.5910504 56.333278,56.333278 0 0 1 29.29951,-13.178 z m 14.9996,0.0212 v 8.7436504 a 56.333278,56.333278 0 0 1 29.299503,13.24414 40,40 0 0 0 -17.694013,-19.5564304 64.999935,64.999935 0 0 0 -11.60549,-2.43137 z m -14.9996,17.4945204 a 47.666619,47.666619 0 0 0 -28.85147,16.23002 100,100 0 0 1 6.43371,5.80378 38.999961,38.999961 0 0 1 22.41776,-13.23485 z m 14.9996,0.016 v 8.8005 a 38.999961,38.999961 0 0 1 22.364008,13.26327 100,100 0 0 1 6.421313,-5.81463 47.666619,47.666619 0 0 0 -28.785321,-16.24914 z m -14.9996,17.64441 a 30.333303,30.333303 0 0 0 -16.44499,10.79262 100,100 0 0 1 5.54178,7.12308 21.666645,21.666645 0 0 1 10.90321,-8.83616 z m 14.9996,0.0279 v 9.07852 a 21.666645,21.666645 0 0 1 10.8474,8.8346 100,100 0 0 1 5.541779,-7.09931 30.333303,30.333303 0 0 0 -16.389179,-10.81381 z m -14.9996,18.74149 a 12.999987,12.999987 0 0 0 -5.54747,10.61589 12.999987,12.999987 0 0 0 12.99973,13.00024 12.999987,12.999987 0 0 0 3.36878,-0.45372 12.999987,12.999987 0 0 0 9.63146,-12.54652 12.999987,12.999987 0 0 0 -5.4529,-10.58333 v 9.35653 c 0,4.155 -3.34481,7.50032 -7.4998,7.50032 -4.15499,0 -7.4998,-3.34532 -7.4998,-7.50032 z m 7.4998,2.22831 c -1.47842,0 -2.74795,0.53051 -3.80855,1.59112 -1.02847,1.02846 -1.54255,2.28207 -1.54255,3.76049 0,1.47842 0.51408,2.73151 1.54255,3.75998 1.0606,1.02846 2.33013,1.54306 3.80855,1.54306 1.44628,0 2.69989,-0.5146 3.76049,-1.54306 1.06061,-1.02847 1.5906,-2.28156 1.5906,-3.75998 0,-1.47842 -0.52999,-2.73203 -1.5906,-3.76049 -1.0606,-1.06061 -2.31421,-1.59112 -3.76049,-1.59112 z" />
    <path
       id="circle1251"
       style="fill:#32e6e6;fill-opacity:1;stroke-width:2.40987"
       d="M 49.952457,10.9998 A 64.999935,64.999935 0 0 0 31.208896,13.77637 40,40 0 0 0 13.200696,33.36742 56.333278,56.333278 0 0 1 49.952457,19.66697 56.333278,56.333278 0 0 1 86.799304,33.44752 40,40 0 0 0 69.105293,13.89109 64.999935,64.999935 0 0 0 49.952457,10.9998 Z m 0,17.33382 A 47.666619,47.666619 0 0 0 13.648726,45.18427 100,100 0 0 1 20.082446,50.98805 38.999961,38.999961 0 0 1 49.952457,37.00028 38.999961,38.999961 0 0 1 79.86381,51.03404 100,100 0 0 1 86.285123,45.21941 47.666619,47.666619 0 0 0 49.952457,28.33362 Z m 0,17.33331 A 30.333303,30.333303 0 0 0 26.055206,57.4073 100,100 0 0 1 31.596986,64.53038 21.666645,21.666645 0 0 1 49.952974,54.33307 21.666645,21.666645 0 0 1 68.3472,64.5557 100,100 0 0 1 73.888981,57.45639 30.333303,30.333303 0 0 0 49.952457,45.66693 Z m 0,17.33279 a 12.999987,12.999987 0 0 0 -1.514636,0.0977 12.999987,12.999987 0 0 0 -0.164331,0.0186 12.999987,12.999987 0 0 0 -1.513603,0.29043 12.999987,12.999987 0 0 0 -0.03927,0.0103 12.999987,12.999987 0 0 0 -9.767877,12.58321 12.999987,12.999987 0 0 0 12.999721,13.00024 12.999987,12.999987 0 0 0 3.368787,-0.45372 12.999987,12.999987 0 0 0 9.631453,-12.54652 12.999987,12.999987 0 0 0 -6.75876,-11.4024 12.999987,12.999987 0 0 0 -0.0041,-0.003 12.999987,12.999987 0 0 0 -0.0041,-0.002 12.999987,12.999987 0 0 0 -1.460892,-0.6842 12.999987,12.999987 0 0 0 -0.01395,-0.006 12.999987,12.999987 0 0 0 -1.535824,-0.49661 12.999987,12.999987 0 0 0 -0.0036,-10e-4 12.999987,12.999987 0 0 0 -0.0041,-10e-4 12.999987,12.999987 0 0 0 -1.583883,-0.30128 12.999987,12.999987 0 0 0 -0.02119,-0.003 12.999987,12.999987 0 0 0 -1.609721,-0.10077 z" />
    <ellipse
       style="fill:url(#linearGradient4010);fill-opacity:1;stroke-width:1.24089"
       id="circle3946"
       cx="1.6021567e-06"
       cy="84.687103"
       rx="34.568161"
       ry="26.693441"
       transform="matrix(-0.70710678,0.70710678,0.70710678,0.70710678,0,0)" />
  </g>
</svg>
