<?xml version="1.0" encoding="UTF-8" standalone="no"?>
<!-- Created with Inkscape (http://www.inkscape.org/) -->

<svg
   width="100mm"
   height="100mm"
   viewBox="0 0 100 100"
   version="1.1"
   id="svg3242"
   inkscape:version="1.2.1 (9c6d41e410, 2022-07-14)"
   sodipodi:docname="btn-img-reset.svg"
   inkscape:export-filename="Svelte\sv-kit\web\src\lib\btn-img-start.png"
   inkscape:export-xdpi="7.6199999"
   inkscape:export-ydpi="7.6199999"
   xmlns:inkscape="http://www.inkscape.org/namespaces/inkscape"
   xmlns:sodipodi="http://sodipodi.sourceforge.net/DTD/sodipodi-0.dtd"
   xmlns:xlink="http://www.w3.org/1999/xlink"
   xmlns="http://www.w3.org/2000/svg"
   xmlns:svg="http://www.w3.org/2000/svg">
  <sodipodi:namedview
     id="namedview3244"
     pagecolor="#ffffff"
     bordercolor="#666666"
     borderopacity="1.0"
     inkscape:showpageshadow="2"
     inkscape:pageopacity="0.0"
     inkscape:pagecheckerboard="true"
     inkscape:deskcolor="#d1d1d1"
     inkscape:document-units="mm"
     showgrid="false"
     inkscape:zoom="0.74564396"
     inkscape:cx="-10.05842"
     inkscape:cy="256.15443"
     inkscape:window-width="1920"
     inkscape:window-height="1017"
     inkscape:window-x="1918"
     inkscape:window-y="-8"
     inkscape:window-maximized="1"
     inkscape:current-layer="layer1" />
  <defs
     id="defs3239">
    <linearGradient
       inkscape:collect="always"
       id="linearGradient4008">
      <stop
         style="stop-color:#e6e6e6;stop-opacity:0.60000002;"
         offset="0"
         id="stop4004" />
      <stop
         style="stop-color:#e6e6e6;stop-opacity:0;"
         offset="1"
         id="stop4006" />
    </linearGradient>
    <linearGradient
       inkscape:collect="always"
       xlink:href="#linearGradient4008"
       id="linearGradient4010"
       x1="50.255611"
       y1="117.32954"
       x2="49.88274"
       y2="50.750202"
       gradientUnits="userSpaceOnUse"
       gradientTransform="matrix(0.9276027,0,0,1.0162686,-46.380138,17.375713)" />
  </defs>
  <g
     inkscape:label="Layer 1"
     inkscape:groupmode="layer"
     id="layer1">
    <path
       id="path6023"
       style="fill:#1e1e1e;fill-opacity:0.8;stroke-width:1.67322"
       d="m 0.01611896,51.892234 a 50,50 0 0 0 0.43098158,4.732527 50,50 0 0 0 0.19430354,1.288811 50,50 0 0 0 0.78341482,3.91036 50,50 0 0 0 0.1881021,0.82424 50,50 0 0 0 1.4149004,4.502559 50,50 0 0 0 0.4278814,1.089341 50,50 0 0 0 1.5265218,3.4985 50,50 0 0 0 0.5069452,1.052649 50,50 0 0 0 2.338359,4.101041 50,50 0 0 0 0.4754231,0.69711 50,50 0 0 0 2.3368071,3.238559 50,50 0 0 0 0.806154,1.010801 50,50 0 0 0 3.180167,3.539309 50,50 0 0 0 3.394624,3.05666 50,50 0 0 0 1.10536,0.888841 50,50 0 0 0 2.971394,2.158519 50,50 0 0 0 0.841293,0.58343 50,50 0 0 0 3.685046,2.12752 50,50 0 0 0 1.601453,0.79995 50,50 0 0 0 2.670638,1.18908 50,50 0 0 0 1.589051,0.65629 50,50 0 0 0 3.780648,1.22886 50,50 0 0 0 2.083077,0.52969 50,50 0 0 0 2.286164,0.48627 50,50 0 0 0 2.1978,0.39481 50,50 0 0 0 3.700549,0.38861 50,50 0 0 0 2.490286,0.08733 50,50 0 0 0 36.313029,-14.57586 50,50 0 0 0 3.126942,-3.472139 50,50 0 0 0 0.815454,-1.02267 50,50 0 0 0 2.19418,-3.02049 50,50 0 0 0 0.59273,-0.8692 50,50 0 0 0 2.31562,-4.01164 50,50 0 0 0 0.456303,-0.94671 50,50 0 0 0 1.518255,-3.410651 50,50 0 0 0 0.476973,-1.214909 50,50 0 0 0 1.444355,-4.446241 50,50 0 0 0 0.972551,-4.5744 50,50 0 0 0 0.193787,-1.286219 50,50 0 0 0 0.39119,-3.719156 50,50 0 0 0 0.07803,-1.043348 50,50 0 0 0 -10e-7,-4.635375 50,50 0 0 0 -0.07803,-1.043348 50,50 0 0 0 -0.391191,-3.719152 50,50 0 0 0 -0.193787,-1.286227 50,50 0 0 0 -0.972551,-4.574397 50,50 0 0 0 -1.444355,-4.44624 50,50 0 0 0 -0.476973,-1.214913 50,50 0 0 0 -1.518254,-3.410645 50,50 0 0 0 -0.456304,-0.946713 50,50 0 0 0 -2.315621,-4.01164 50,50 0 0 0 -0.592728,-0.869199 50,50 0 0 0 -2.194181,-3.020486 50,50 0 0 0 -0.815454,-1.022677 50,50 0 0 0 -3.126941,-3.472139 50,50 0 0 0 -1.274341,-1.229383 50,50 0 0 0 -0.01033,-0.0098 50,50 0 0 0 -0.0155,-0.01394 50,50 0 0 0 -1.268142,-1.139463 50,50 0 0 0 -0.08785,-0.07597 50,50 0 0 0 -1.265039,-1.057298 50,50 0 0 0 -0.101281,-0.08268 50,50 0 0 0 -1.329636,-1.032496 50,50 0 0 0 -5.17e-4,-5.17e-4 A 50,50 0 0 0 79.879989,9.9485633 50,50 0 0 0 78.559138,8.9966837 50,50 0 0 0 78.428395,8.9057364 50,50 0 0 0 77.10031,8.0184517 50,50 0 0 0 76.93701,7.9130355 50,50 0 0 0 75.614092,7.095514 50,50 0 0 0 75.387235,6.9606369 50,50 0 0 0 74.030212,6.1875585 50,50 0 0 0 74.01834,6.181343 50,50 0 0 0 73.823523,6.0759191 50,50 0 0 0 72.488721,5.377253 50,50 0 0 0 72.213806,5.2403084 50,50 0 0 0 70.891405,4.6077879 50,50 0 0 0 70.647492,4.4956507 50,50 0 0 0 69.266697,3.8946552 50,50 0 0 0 68.953539,3.764947 50,50 0 0 0 67.592898,3.2295788 50,50 0 0 0 67.58413,3.2264676 50,50 0 0 0 67.277172,3.1127796 50,50 0 0 0 65.970276,2.6513097 50,50 0 0 0 65.583219,2.5221178 50,50 0 0 0 64.309395,2.1231759 50,50 0 0 0 63.842757,1.9857172 50,50 0 0 0 62.549812,1.6317339 50,50 0 0 0 62.117797,1.5216628 50,50 0 0 0 60.802632,1.2105712 a 50,50 0 0 0 -0.01089,-0.00212 50,50 0 0 0 -0.418578,-0.09043 50,50 0 0 0 -1.269691,-0.25269806 50,50 0 0 0 -0.440282,-0.0800997 50,50 0 0 0 -0.0217,-0.003599 A 50,50 0 0 0 57.376436,0.57703602 50,50 0 0 0 56.81058,0.4953864 50,50 0 0 0 55.627706,0.3465581 50,50 0 0 0 55.032394,0.28247867 50,50 0 0 0 53.777173,0.17085762 50,50 0 0 0 53.287281,0.13623768 50,50 0 0 0 52.059965,0.07060756 50,50 0 0 0 51.445016,0.04889797 50,50 0 0 0 50.318985,0.02874755 50,50 0 0 0 49.981022,0.02664814 V 0.02254693 A 50,50 0 0 0 14.626074,14.667133 a 50,50 0 0 0 1e-6,5.15e-4 50,50 0 0 0 -0.01705,0.01809 50,50 0 0 0 -3.059243,3.391505 50,50 0 0 0 -0.831473,1.042831 50,50 0 0 0 -2.0944461,2.865458 50,50 0 0 0 -0.6624916,0.972034 50,50 0 0 0 -2.304252,3.947562 50,50 0 0 0 -0.3725875,0.774113 50,50 0 0 0 -1.5642457,3.452503 50,50 0 0 0 -0.4986771,1.270206 50,50 0 0 0 -1.2097453,3.619418 50,50 0 0 0 -0.2449465,0.793233 50,50 0 0 0 -0.99735481,4.465877 50,50 0 0 0 -0.17621702,1.167888 50,50 0 0 0 -0.4144449,3.532601 50,50 0 0 0 -0.0981846,1.30793 50,50 0 0 0 -0.06459633,4.603336 z M 12.481509,50.022581 A 37.5,37.5 0 0 1 23.464818,23.50637 l 8.838736,8.839253 a 24.999878,24.999899 90 0 0 -0.01705,0.0186 24.999903,24.999924 90 0 0 -7.305499,17.658357 24.999903,24.999924 90 0 0 25.000023,25.000021 v -8.74985 l 15.000119,14.9996 -15.000119,15.00012 v -8.74985 A 37.5,37.5 0 0 1 23.464818,76.538792 37.5,37.5 0 0 1 12.481509,50.022581 Z M 34.98091,18.772808 49.981027,3.7726906 l 0,8.7545054 a 37.5,37.5 0 0 1 26.516729,10.979174 37.5,37.5 0 0 1 0,53.032942 l -8.839254,-8.839261 a 24.999878,24.999899 90 0 0 0.232544,-0.257859 24.999903,24.999924 90 0 0 1.244889,-1.378207 24.999878,24.999899 90 0 0 0.236679,-0.274919 24.999903,24.999924 90 0 0 1.403531,-1.90428 24.999878,24.999899 90 0 0 0.05891,-0.09508 24.999903,24.999924 90 0 0 1.151867,-1.940449 24.999878,24.999899 90 0 0 0.131263,-0.247017 24.999903,24.999924 90 0 0 2.862875,-11.579651 24.999903,24.999924 90 0 0 -25.000025,-25.000023 l -10e-7,8.749853 z" />
    <ellipse
       style="fill:url(#linearGradient4010);fill-opacity:1;stroke-width:1.24089"
       id="circle3946"
       cx="1.6021567e-06"
       cy="84.687103"
       rx="34.568161"
       ry="26.693441"
       transform="matrix(-0.70710678,0.70710678,0.70710678,0.70710678,0,0)" />
  </g>
</svg>
