<?xml version="1.0" encoding="UTF-8" standalone="no"?>
<!-- Created with Inkscape (http://www.inkscape.org/) -->

<svg
   width="100mm"
   height="100mm"
   viewBox="0 0 100 100"
   version="1.1"
   id="svg3242"
   inkscape:version="1.2.1 (9c6d41e410, 2022-07-14)"
   sodipodi:docname="btn-img-connect-green.svg"
   inkscape:export-filename="Svelte\sv-kit\web\src\lib\btn-img-start.png"
   inkscape:export-xdpi="7.6199999"
   inkscape:export-ydpi="7.6199999"
   xmlns:inkscape="http://www.inkscape.org/namespaces/inkscape"
   xmlns:sodipodi="http://sodipodi.sourceforge.net/DTD/sodipodi-0.dtd"
   xmlns:xlink="http://www.w3.org/1999/xlink"
   xmlns="http://www.w3.org/2000/svg"
   xmlns:svg="http://www.w3.org/2000/svg">
  <sodipodi:namedview
     id="namedview3244"
     pagecolor="#ffffff"
     bordercolor="#666666"
     borderopacity="1.0"
     inkscape:showpageshadow="2"
     inkscape:pageopacity="0.0"
     inkscape:pagecheckerboard="true"
     inkscape:deskcolor="#d1d1d1"
     inkscape:document-units="mm"
     showgrid="false"
     inkscape:zoom="0.37282198"
     inkscape:cx="-1117.1552"
     inkscape:cy="-262.86004"
     inkscape:window-width="1920"
     inkscape:window-height="1017"
     inkscape:window-x="1918"
     inkscape:window-y="-8"
     inkscape:window-maximized="1"
     inkscape:current-layer="layer1" />
  <defs
     id="defs3239">
    <linearGradient
       inkscape:collect="always"
       id="linearGradient4008">
      <stop
         style="stop-color:#e6e6e6;stop-opacity:0.60000002;"
         offset="0"
         id="stop4004" />
      <stop
         style="stop-color:#e6e6e6;stop-opacity:0;"
         offset="1"
         id="stop4006" />
    </linearGradient>
    <linearGradient
       inkscape:collect="always"
       xlink:href="#linearGradient4008"
       id="linearGradient4010"
       x1="50.255611"
       y1="117.32954"
       x2="49.88274"
       y2="50.750202"
       gradientUnits="userSpaceOnUse"
       gradientTransform="matrix(0.9276027,0,0,1.0162686,-46.380138,17.375713)" />
  </defs>
  <g
     inkscape:label="Layer 1"
     inkscape:groupmode="layer"
     id="layer1">
    <g
       id="g3084">
      <path
         style="fill:#dc193c;fill-opacity:1;stroke-width:0.792803"
         d="M 41.02915,65.53808 A 9,9 0 0 0 28.73497,68.832296 9,9 0 0 0 32.02918,81.126481 9,9 0 0 0 44.32337,77.832266 9,9 0 0 0 41.02915,65.53808 Z"
         id="path3066" />
      <path
         id="path3068"
         style="fill:#787878;fill-opacity:1;stroke-width:0.792803"
         d="M 47.843075 11.871627 A 40 40 0 0 0 24.917859 19.844784 A 56.333278 56.333278 0 0 1 63.596118 26.356014 A 56.333278 56.333278 0 0 1 88.616296 56.713334 A 40 40 0 0 0 83.070898 30.929895 A 64.999935 64.999935 0 0 0 67.929704 18.850012 A 64.999935 64.999935 0 0 0 50.309074 11.882479 A 40 40 0 0 0 47.843075 11.871627 z M 43.44231 28.167273 A 35.326754 37.420272 30 0 0 20.505208 36.08772 A 49.751797 52.700165 30 0 1 55.022998 41.216606 A 49.751797 52.700165 30 0 1 76.759139 68.65214 A 35.326754 37.420272 30 0 0 72.373877 44.995186 A 57.405918 60.807882 30 0 0 59.077014 34.194812 A 57.405918 60.807882 30 0 0 43.44231 28.167273 z M 37.559981 46.014762 A 27.174426 35.638354 30 0 0 18.237646 55.013696 A 38.270613 50.190632 30 0 1 45.963603 56.926241 A 38.270613 50.190632 30 0 1 61.503223 80.075732 A 27.174426 35.638354 30 0 0 59.805652 58.975728 A 44.158398 57.912267 30 0 0 49.824349 50.238794 A 44.158398 57.912267 30 0 0 37.559981 46.014762 z " />
    </g>
    <ellipse
       style="fill:url(#linearGradient4010);fill-opacity:1;stroke-width:1.24089"
       id="circle3946"
       cx="1.6021567e-06"
       cy="84.687103"
       rx="34.568161"
       ry="26.693441"
       transform="matrix(-0.70710678,0.70710678,0.70710678,0.70710678,0,0)" />
    <g
       id="g1913"
       transform="rotate(30,-355.97052,-100.5453)">
      <g
         id="g1908">
        <circle
           style="fill:#5e193c;fill-opacity:1;stroke-width:1.13374"
           id="path1899"
           cx="-355.97052"
           cy="-100.5453"
           r="50" />
      </g>
      <path
         id="path1359"
         style="fill:#3cd200;fill-opacity:1;stroke-width:0.792803"
         d="m -356.01806,-136.48704 a 64.999935,64.999935 0 0 0 -18.74356,2.77658 40,40 0 0 0 -18.00821,19.59105 56.333278,56.333278 0 0 1 36.75177,-13.70046 56.333278,56.333278 0 0 1 36.84684,13.78056 40,40 0 0 0 -17.69401,-19.55643 64.999935,64.999935 0 0 0 -19.15283,-2.8913 z m 0.006,17.71572 a 57.405918,60.807882 0 0 0 -16.55403,2.59725 35.326754,37.420272 0 0 0 -15.90394,18.327569 49.751797,52.700165 0 0 1 32.45797,-12.816789 49.751797,52.700165 0 0 1 32.54168,12.89172 35.326754,37.420272 0 0 0 -15.62643,-18.29501 57.405918,60.807882 0 0 0 -16.91525,-2.70474 z m 0.009,18.52083 a 44.158398,57.912267 0 0 0 -12.73359,2.473752 27.174426,35.638354 0 0 0 -12.23388,17.454749 38.270613,50.190632 0 0 1 24.96747,-12.20649 38.270613,50.190632 0 0 1 25.03258,12.277803 27.174426,35.638354 0 0 0 -12.02045,-17.424259 44.158398,57.912267 0 0 0 -13.01213,-2.575555 z m 0.0326,17.646986 a 9,9 0 0 0 -8.99997,8.999968 9,9 0 0 0 8.99997,8.999967 9,9 0 0 0 8.99997,-8.999967 9,9 0 0 0 -8.99997,-8.999968 z" />
    </g>
  </g>
</svg>
