<?xml version="1.0" encoding="UTF-8" standalone="no"?>
<!-- Created with Inkscape (http://www.inkscape.org/) -->

<svg
   width="100mm"
   height="100mm"
   viewBox="0 0 100 100"
   version="1.1"
   id="svg3242"
   inkscape:version="1.2.1 (9c6d41e410, 2022-07-14)"
   sodipodi:docname="btn-img-vlv-flow.svg"
   inkscape:export-filename="Svelte\sv-kit\web\src\lib\btn-img-start.png"
   inkscape:export-xdpi="7.6199999"
   inkscape:export-ydpi="7.6199999"
   xmlns:inkscape="http://www.inkscape.org/namespaces/inkscape"
   xmlns:sodipodi="http://sodipodi.sourceforge.net/DTD/sodipodi-0.dtd"
   xmlns:xlink="http://www.w3.org/1999/xlink"
   xmlns="http://www.w3.org/2000/svg"
   xmlns:svg="http://www.w3.org/2000/svg">
  <sodipodi:namedview
     id="namedview3244"
     pagecolor="#ffffff"
     bordercolor="#666666"
     borderopacity="1.0"
     inkscape:showpageshadow="2"
     inkscape:pageopacity="0.0"
     inkscape:pagecheckerboard="true"
     inkscape:deskcolor="#d1d1d1"
     inkscape:document-units="mm"
     showgrid="false"
     inkscape:zoom="0.74564396"
     inkscape:cx="-393.6195"
     inkscape:cy="234.69646"
     inkscape:window-width="1920"
     inkscape:window-height="1017"
     inkscape:window-x="1918"
     inkscape:window-y="-8"
     inkscape:window-maximized="1"
     inkscape:current-layer="layer1" />
  <defs
     id="defs3239">
    <linearGradient
       inkscape:collect="always"
       id="linearGradient4008">
      <stop
         style="stop-color:#e6e6e6;stop-opacity:0.60000002;"
         offset="0"
         id="stop4004" />
      <stop
         style="stop-color:#e6e6e6;stop-opacity:0;"
         offset="1"
         id="stop4006" />
    </linearGradient>
    <linearGradient
       inkscape:collect="always"
       xlink:href="#linearGradient4008"
       id="linearGradient4010"
       x1="50.255611"
       y1="117.32954"
       x2="49.88274"
       y2="50.750202"
       gradientUnits="userSpaceOnUse"
       gradientTransform="matrix(0.9276027,0,0,1.0162686,-46.380138,17.375713)" />
  </defs>
  <g
     inkscape:label="Layer 1"
     inkscape:groupmode="layer"
     id="layer1">
    <path
       id="path5458"
       style="fill:#1e1e1e;fill-opacity:0.8;stroke-width:2.24783"
       d="m -136.65214,-78.028307 5.2e-4,16.416569 a 33.585772,33.585769 45 0 0 -23.74222,9.834025 33.585772,33.585769 45 0 0 -9.81336,23.755656 l -16.43775,5.17e-4 a 49.999919,49.999919 0 0 0 14.64406,35.347713 49.999919,49.999919 0 0 0 35.34823,14.644585 V 5.533518 a 33.585772,33.585769 45 0 0 23.75669,-9.813355 33.585772,33.585769 45 0 0 9.83403,-23.741703 h 16.416574 a 49.999919,49.999919 0 0 0 -14.644594,-35.362699 49.999919,49.999919 0 0 0 -35.36218,-14.644068 z m 0.0176,26.491923 a 23.510041,23.510039 45 0 1 2.61586,0.145211 23.510041,23.510039 45 0 1 2.58692,0.43925 23.510041,23.510039 45 0 1 0.0217,0.0047 23.510041,23.510039 45 0 1 2.49442,0.717785 23.510041,23.510039 45 0 1 0.0656,0.02377 23.510041,23.510039 45 0 1 2.40192,0.994254 23.510041,23.510039 45 0 1 2.27376,1.255737 23.510041,23.510039 45 0 1 0.062,0.03824 23.510041,23.510039 45 0 1 2.08928,1.482597 23.510041,23.510039 45 0 1 0.0734,0.05788 23.510041,23.510039 45 0 1 1.92857,1.724443 23.510041,23.510039 45 0 1 1.75493,1.967322 23.510041,23.510039 45 0 1 5.11442,14.664221 h 0.0145 a 23.510041,23.510039 45 0 1 -6.88381,16.616507 23.510041,23.510039 45 0 1 -16.7597,6.86108 23.510041,23.510039 45 0 1 -5.82704,-0.763777 23.510041,23.510039 45 0 1 -0.32504,-0.09302 23.510041,23.510039 45 0 1 -2.49804,-0.845941 23.510041,23.510039 45 0 1 -0.31109,-0.120923 23.510041,23.510039 45 0 1 -2.58434,-1.271757 23.510041,23.510039 45 0 1 -0.27182,-0.168465 23.510041,23.510039 45 0 1 -2.05776,-1.373043 23.510041,23.510039 45 0 1 -0.51934,-0.39119 23.510041,23.510039 45 0 1 -2.09393,-1.832964 23.510041,23.510039 45 0 1 -1.83245,-2.093929 23.510041,23.510039 45 0 1 -0.39171,-0.519348 23.510041,23.510039 45 0 1 -1.37304,-2.057755 23.510041,23.510039 45 0 1 -0.16846,-0.271818 23.510041,23.510039 45 0 1 -1.27176,-2.584338 23.510041,23.510039 45 0 1 -0.12144,-0.311609 23.510041,23.510039 45 0 1 -0.84594,-2.498039 23.510041,23.510039 45 0 1 -0.0925,-0.324528 23.510041,23.510039 45 0 1 -0.76429,-5.827551 23.510041,23.510039 45 0 1 6.86108,-16.759701 l 5.2e-4,-5.17e-4 a 23.510041,23.510039 45 0 1 16.63464,-6.882784 z m -16.46101,8.124569 11.9109,34.999931 h 8.93279 l 12.05766,-34.999931 h -8.24962 l -7.24917,24.260535 c -0.39052,1.30172 -0.64265,2.497704 -0.75655,3.587894 h -0.14676 c -0.0814,-1.008833 -0.31693,-2.172234 -0.70745,-3.490226 l -7.29774,-24.358203 z" />
    <path
       id="path5444"
       style="fill:#1e1e1e;fill-opacity:0.8;stroke-width:2.24783"
       d="m -77.876017,21.970758 -11.60756,11.608593 a 33.585769,33.585772 0 0 0 -23.742223,-9.834542 33.585769,33.585772 0 0 0 -23.73706,9.85883 l -11.62358,-11.623063 a 49.999919,49.999919 0 0 0 -14.63941,35.34978 49.999919,49.999919 0 0 0 14.63941,35.350294 l 11.62307,-11.62306 a 33.585769,33.585772 0 0 0 23.73757,9.859347 33.585769,33.585772 0 0 0 23.741703,-9.834025 l 11.60808,11.608078 A 49.999919,49.999919 0 0 0 -63.225752,57.330356 49.999919,49.999919 0 0 0 -77.876017,21.970758 Z m -35.350303,11.849405 h 5.2e-4 a 23.510039,23.510041 0 0 1 16.629473,6.895704 23.510039,23.510041 0 0 1 1.74718,1.952335 23.510039,23.510041 0 0 1 1.51877,2.139921 23.510039,23.510041 0 0 1 0.0124,0.0186 23.510039,23.510041 0 0 1 1.25574,2.271179 23.510039,23.510041 0 0 1 0.02946,0.06305 23.510039,23.510041 0 0 1 0.9958,2.401921 23.510039,23.510041 0 0 1 0.71985,2.495455 23.510039,23.510041 0 0 1 0.01654,0.07131 23.510039,23.510041 0 0 1 0.42892,2.524911 23.510039,23.510041 0 0 1 0.01085,0.09302 23.510039,23.510041 0 0 1 0.14469,2.583305 23.510039,23.510041 0 0 1 -0.15038,2.631881 23.510039,23.510041 0 0 1 -6.75256,13.985709 l 0.01034,0.01034 a 23.510039,23.510041 0 0 1 -16.617593,6.882267 23.510039,23.510041 0 0 1 -16.70234,-6.999056 23.510039,23.510041 0 0 1 -3.58014,-4.661214 23.510039,23.510041 0 0 1 -0.16382,-0.295073 23.510039,23.510041 0 0 1 -1.1684,-2.364713 23.510039,23.510041 0 0 1 -0.13488,-0.305408 23.510039,23.510041 0 0 1 -0.92759,-2.726965 23.510039,23.510041 0 0 1 -0.0734,-0.311092 23.510039,23.510041 0 0 1 -0.48421,-2.426209 23.510039,23.510041 0 0 1 -0.0904,-0.643888 23.510039,23.510041 0 0 1 -0.185,-2.776575 23.510039,23.510041 0 0 1 0.185,-2.776575 23.510039,23.510041 0 0 1 0.0904,-0.643888 23.510039,23.510041 0 0 1 0.48421,-2.426208 23.510039,23.510041 0 0 1 0.0734,-0.311093 23.510039,23.510041 0 0 1 0.92759,-2.726965 23.510039,23.510041 0 0 1 0.13488,-0.305924 23.510039,23.510041 0 0 1 1.1684,-2.364197 23.510039,23.510041 0 0 1 0.16382,-0.295073 23.510039,23.510041 0 0 1 3.58014,-4.661214 23.510039,23.510041 0 0 1 16.70234,-6.999573 z m -11.36882,6.011003 v 34.999931 h 13.4488 c 3.97024,0 7.10256,-0.935841 9.39684,-2.807064 2.294283,-1.887494 3.441133,-4.433841 3.441133,-7.639327 0,-2.196652 -0.74836,-4.059802 -2.245343,-5.589323 -1.48071,-1.529521 -3.46565,-2.448812 -5.95519,-2.757971 v -0.09767 c 1.98512,-0.553231 3.61218,-1.537688 4.88135,-2.953309 1.28545,-1.41562 1.928053,-3.067242 1.928053,-4.954736 0,-2.60344 -1.049623,-4.620968 -3.148643,-6.05286 -2.09903,-1.431892 -5.10101,-2.147673 -9.00617,-2.147673 z m 7.88376,5.808431 h 2.95331 c 3.84007,0 5.75985,1.285715 5.75985,3.856612 0,1.383078 -0.47167,2.473298 -1.41541,3.270602 -0.92748,0.781032 -2.20466,1.171504 -3.83181,1.171504 h -3.46594 z m 0,14.156242 h 4.32015 c 1.82241,0 3.23794,0.399006 4.24677,1.196309 1.0251,0.797304 1.53789,1.895541 1.53789,3.29489 0,1.464435 -0.5208,2.61982 -1.56218,3.465938 -1.0251,0.846118 -2.44916,1.269173 -4.27157,1.269173 h -4.27106 z" />
    <path
       id="path5460"
       style="fill:#1e1e1e;fill-opacity:0.8;stroke-width:2.24783"
       d="M 50.000515,-5.0000279e-5 A 49.999919,49.999919 0 0 0 14.650225,14.63989 l 11.62306,11.62254 a 33.585772,33.585769 0 0 0 -9.85935,23.73809 33.585772,33.585769 0 0 0 9.83403,23.74119 L 14.639885,85.3503 a 49.999919,49.999919 0 0 0 35.36063,14.64975 49.999919,49.999919 0 0 0 35.3596,-14.64975 L 73.751525,73.74222 a 33.585772,33.585769 0 0 0 9.83454,-23.7417 33.585772,33.585769 0 0 0 -9.85883,-23.73757 L 85.350295,14.63989 A 49.999919,49.999919 0 0 0 50.000515,-5.0000279e-5 Z M 50.000005,26.48981 a 23.510041,23.510039 0 0 1 2.77657,0.18449 23.510041,23.510039 0 0 1 0.64389,0.0904 23.510041,23.510039 0 0 1 2.42621,0.48421 23.510041,23.510039 0 0 1 0.31109,0.0734 23.510041,23.510039 0 0 1 2.72696,0.92811 23.510041,23.510039 0 0 1 0.30593,0.13436 23.510041,23.510039 0 0 1 2.3642,1.1684 23.510041,23.510039 0 0 1 0.29507,0.16381 23.510041,23.510039 0 0 1 4.66121,3.58015 23.510041,23.510039 0 0 1 6.99958,16.70285 v 5.2e-4 a 23.510041,23.510039 0 0 1 -6.89571,16.62896 23.510041,23.510039 0 0 1 -1.95233,1.74718 23.510041,23.510039 0 0 1 -2.13992,1.51929 23.510041,23.510039 0 0 1 -0.01861,0.0119 23.510041,23.510039 0 0 1 -2.27118,1.25574 23.510041,23.510039 0 0 1 -0.06304,0.03 23.510041,23.510039 0 0 1 -2.40192,0.99529 23.510041,23.510039 0 0 1 -2.49546,0.71985 23.510041,23.510039 0 0 1 -0.07131,0.0165 23.510041,23.510039 0 0 1 -2.52491,0.42891 23.510041,23.510039 0 0 1 -0.09302,0.0114 23.510041,23.510039 0 0 1 -2.5833,0.1447 23.510041,23.510039 0 0 1 -2.63189,-0.15038 23.510041,23.510039 0 0 1 -13.9857,-6.75308 l -0.01034,0.0103 a 23.510041,23.510039 0 0 1 -6.88227,-16.61708 23.510041,23.510039 0 0 1 6.99906,-16.70285 23.510041,23.510039 0 0 1 4.66121,-3.58015 23.510041,23.510039 0 0 1 0.29508,-0.16381 23.510041,23.510039 0 0 1 2.36471,-1.1684 23.510041,23.510039 0 0 1 0.30541,-0.13436 23.510041,23.510039 0 0 1 2.72696,-0.92811 23.510041,23.510039 0 0 1 0.31109,-0.0734 23.510041,23.510039 0 0 1 2.42621,-0.48421 23.510041,23.510039 0 0 1 0.64389,-0.0904 23.510041,23.510039 0 0 1 2.77658,-0.18449 z m -9.7622,6.36499 v 34.99993 h 7.88376 V 54.26021 h 11.34918 v -6.39496 h -11.34918 v -8.59121 h 12.35015 V 32.8548 Z" />
    <ellipse
       style="fill:url(#linearGradient4010);fill-opacity:1;stroke-width:1.24089"
       id="circle3946"
       cx="1.6021567e-06"
       cy="84.687103"
       rx="34.568161"
       ry="26.693441"
       transform="matrix(-0.70710678,0.70710678,0.70710678,0.70710678,0,0)" />
  </g>
</svg>
