<?xml version="1.0" encoding="UTF-8" standalone="no"?>
<!-- Created with Inkscape (http://www.inkscape.org/) -->

<svg
   width="100mm"
   height="100mm"
   viewBox="0 0 100 100"
   version="1.1"
   id="svg3242"
   inkscape:version="1.2.1 (9c6d41e410, 2022-07-14)"
   sodipodi:docname="btn-img-vlv-flow.svg"
   inkscape:export-filename="Svelte\sv-kit\web\src\lib\btn-img-start.png"
   inkscape:export-xdpi="7.6199999"
   inkscape:export-ydpi="7.6199999"
   xmlns:inkscape="http://www.inkscape.org/namespaces/inkscape"
   xmlns:sodipodi="http://sodipodi.sourceforge.net/DTD/sodipodi-0.dtd"
   xmlns:xlink="http://www.w3.org/1999/xlink"
   xmlns="http://www.w3.org/2000/svg"
   xmlns:svg="http://www.w3.org/2000/svg">
  <sodipodi:namedview
     id="namedview3244"
     pagecolor="#ffffff"
     bordercolor="#666666"
     borderopacity="1.0"
     inkscape:showpageshadow="2"
     inkscape:pageopacity="0.0"
     inkscape:pagecheckerboard="true"
     inkscape:deskcolor="#d1d1d1"
     inkscape:document-units="mm"
     showgrid="false"
     inkscape:zoom="0.74564396"
     inkscape:cx="-393.6195"
     inkscape:cy="234.69646"
     inkscape:window-width="1920"
     inkscape:window-height="1017"
     inkscape:window-x="1918"
     inkscape:window-y="-8"
     inkscape:window-maximized="1"
     inkscape:current-layer="layer1" />
  <defs
     id="defs3239">
    <linearGradient
       inkscape:collect="always"
       id="linearGradient4008">
      <stop
         style="stop-color:#e6e6e6;stop-opacity:0.60000002;"
         offset="0"
         id="stop4004" />
      <stop
         style="stop-color:#e6e6e6;stop-opacity:0;"
         offset="1"
         id="stop4006" />
    </linearGradient>
    <linearGradient
       inkscape:collect="always"
       xlink:href="#linearGradient4008"
       id="linearGradient4010"
       x1="50.255611"
       y1="117.32954"
       x2="49.88274"
       y2="50.750202"
       gradientUnits="userSpaceOnUse"
       gradientTransform="matrix(0.9276027,0,0,1.0162686,-46.380138,17.375713)" />
  </defs>
  <g
     inkscape:label="Layer 1"
     inkscape:groupmode="layer"
     id="layer1">
    <path
       id="path5458"
       style="fill:#1e1e1e;fill-opacity:0.8;stroke-width:2.24783"
       d="M 49.99302,4.6777877e-4 49.99354,16.417037 A 33.585772,33.585769 45 0 0 26.25132,26.251062 33.585772,33.585769 45 0 0 16.43796,50.006718 L 2.0972145e-4,50.007235 A 49.999919,49.999919 0 0 0 14.64427,85.354948 49.999919,49.999919 0 0 0 49.9925,99.999533 V 83.562293 A 33.585772,33.585769 45 0 0 73.74919,73.748938 33.585772,33.585769 45 0 0 83.58322,50.007235 H 99.99979 A 49.999919,49.999919 0 0 0 85.3552,14.644536 49.999919,49.999919 0 0 0 49.99302,4.6777877e-4 Z M 50.01059,26.492391 a 23.510041,23.510039 45 0 1 2.61586,0.145211 23.510041,23.510039 45 0 1 2.58692,0.43925 23.510041,23.510039 45 0 1 0.02171,0.0047 23.510041,23.510039 45 0 1 2.49442,0.717785 23.510041,23.510039 45 0 1 0.06563,0.02377 23.510041,23.510039 45 0 1 2.40192,0.994254 23.510041,23.510039 45 0 1 2.27376,1.255737 23.510041,23.510039 45 0 1 0.06201,0.03824 23.510041,23.510039 45 0 1 2.08928,1.482597 23.510041,23.510039 45 0 1 0.07338,0.05788 23.510041,23.510039 45 0 1 1.92857,1.724443 23.510041,23.510039 45 0 1 1.75493,1.967322 23.510041,23.510039 45 0 1 5.11442,14.664221 h 0.01446 a 23.510041,23.510039 45 0 1 -6.88381,16.616507 23.510041,23.510039 45 0 1 -16.7597,6.86108 23.510041,23.510039 45 0 1 -5.82704,-0.763777 23.510041,23.510039 45 0 1 -0.32504,-0.09302 A 23.510041,23.510039 45 0 1 41.21423,71.78265 23.510041,23.510039 45 0 1 40.90314,71.661727 23.510041,23.510039 45 0 1 38.3188,70.38997 23.510041,23.510039 45 0 1 38.04698,70.221505 23.510041,23.510039 45 0 1 35.98922,68.848462 23.510041,23.510039 45 0 1 35.46988,68.457272 23.510041,23.510039 45 0 1 33.37595,66.624308 23.510041,23.510039 45 0 1 31.5435,64.530379 23.510041,23.510039 45 0 1 31.15179,64.011031 23.510041,23.510039 45 0 1 29.77875,61.953276 23.510041,23.510039 45 0 1 29.61029,61.681458 23.510041,23.510039 45 0 1 28.33853,59.09712 23.510041,23.510039 45 0 1 28.21709,58.785511 23.510041,23.510039 45 0 1 27.37115,56.287472 23.510041,23.510039 45 0 1 27.27864,55.962944 23.510041,23.510039 45 0 1 26.51435,50.135393 23.510041,23.510039 45 0 1 33.37543,33.375692 l 5.2e-4,-5.17e-4 a 23.510041,23.510039 45 0 1 16.63464,-6.882784 z m -16.46101,8.124569 11.9109,34.999931 h 8.93279 L 66.45093,34.61696 h -8.24962 l -7.24917,24.260535 c -0.39052,1.30172 -0.64265,2.497704 -0.75655,3.587894 H 50.04883 C 49.96747,61.456556 49.7319,60.293155 49.34138,58.975163 L 42.04364,34.61696 Z" />
    <ellipse
       style="fill:url(#linearGradient4010);fill-opacity:1;stroke-width:1.24089"
       id="circle3946"
       cx="1.6021567e-06"
       cy="84.687103"
       rx="34.568161"
       ry="26.693441"
       transform="matrix(-0.70710678,0.70710678,0.70710678,0.70710678,0,0)" />
    <path
       id="path5444"
       style="fill:#1e1e1e;fill-opacity:0.8;stroke-width:2.24783"
       d="M -170.06145 30.273088 L -181.66901 41.881681 A 33.585769 33.585772 0 0 0 -205.41123 32.047139 A 33.585769 33.585772 0 0 0 -229.14829 41.905969 L -240.77187 30.282906 A 49.999919 49.999919 0 0 0 -255.41128 65.632686 A 49.999919 49.999919 0 0 0 -240.77187 100.98298 L -229.1488 89.35992 A 33.585769 33.585772 0 0 0 -205.41123 99.219267 A 33.585769 33.585772 0 0 0 -181.66953 89.385242 L -170.06145 100.99332 A 49.999919 49.999919 0 0 0 -155.41119 65.632686 A 49.999919 49.999919 0 0 0 -170.06145 30.273088 z M -205.41175 42.122493 L -205.41123 42.122493 A 23.510039 23.510041 0 0 1 -188.78176 49.018197 A 23.510039 23.510041 0 0 1 -187.03458 50.970532 A 23.510039 23.510041 0 0 1 -185.51581 53.110453 A 23.510039 23.510041 0 0 1 -185.50341 53.129057 A 23.510039 23.510041 0 0 1 -184.24767 55.400236 A 23.510039 23.510041 0 0 1 -184.21821 55.463281 A 23.510039 23.510041 0 0 1 -183.22241 57.865202 A 23.510039 23.510041 0 0 1 -182.50256 60.360657 A 23.510039 23.510041 0 0 1 -182.48602 60.43197 A 23.510039 23.510041 0 0 1 -182.0571 62.956881 A 23.510039 23.510041 0 0 1 -182.04625 63.049898 A 23.510039 23.510041 0 0 1 -181.90156 65.633203 A 23.510039 23.510041 0 0 1 -182.05194 68.265084 A 23.510039 23.510041 0 0 1 -188.8045 82.250793 L -188.79416 82.261129 A 23.510039 23.510041 0 0 1 -205.41175 89.143396 A 23.510039 23.510041 0 0 1 -222.11409 82.14434 A 23.510039 23.510041 0 0 1 -225.69423 77.483126 A 23.510039 23.510041 0 0 1 -225.85805 77.188053 A 23.510039 23.510041 0 0 1 -227.02645 74.82334 A 23.510039 23.510041 0 0 1 -227.16133 74.517932 A 23.510039 23.510041 0 0 1 -228.08892 71.790967 A 23.510039 23.510041 0 0 1 -228.1623 71.479875 A 23.510039 23.510041 0 0 1 -228.64651 69.053666 A 23.510039 23.510041 0 0 1 -228.73694 68.409778 A 23.510039 23.510041 0 0 1 -228.92194 65.633203 A 23.510039 23.510041 0 0 1 -228.73694 62.856628 A 23.510039 23.510041 0 0 1 -228.64651 62.21274 A 23.510039 23.510041 0 0 1 -228.1623 59.786532 A 23.510039 23.510041 0 0 1 -228.08892 59.475439 A 23.510039 23.510041 0 0 1 -227.16133 56.748474 A 23.510039 23.510041 0 0 1 -227.02645 56.44255 A 23.510039 23.510041 0 0 1 -225.85805 54.078353 A 23.510039 23.510041 0 0 1 -225.69423 53.78328 A 23.510039 23.510041 0 0 1 -222.11409 49.122066 A 23.510039 23.510041 0 0 1 -205.41175 42.122493 z M -216.78057 48.133496 L -216.78057 83.133427 L -203.33177 83.133427 C -199.36153 83.133427 -196.22921 82.197586 -193.93493 80.326363 C -191.64065 78.438869 -190.4938 75.892522 -190.4938 72.687036 C -190.4938 70.490384 -191.24216 68.627234 -192.73914 67.097713 C -194.21985 65.568192 -196.20479 64.648901 -198.69433 64.339742 L -198.69433 64.242074 C -196.70921 63.688843 -195.08215 62.704386 -193.81298 61.288765 C -192.52753 59.873145 -191.88493 58.221523 -191.88493 56.334029 C -191.88493 53.730589 -192.93455 51.713061 -195.03357 50.281169 C -197.1326 48.849277 -200.13458 48.133496 -204.03974 48.133496 L -216.78057 48.133496 z M -208.89681 53.941927 L -205.9435 53.941927 C -202.10343 53.941927 -200.18365 55.227642 -200.18365 57.798539 C -200.18365 59.181617 -200.65532 60.271837 -201.59906 61.069141 C -202.52654 61.850173 -203.80372 62.240645 -205.43087 62.240645 L -208.89681 62.240645 L -208.89681 53.941927 z M -208.89681 68.098169 L -204.57666 68.098169 C -202.75425 68.098169 -201.33872 68.497175 -200.32989 69.294478 C -199.30479 70.091782 -198.792 71.190019 -198.792 72.589368 C -198.792 74.053803 -199.3128 75.209188 -200.35418 76.055306 C -201.37928 76.901424 -202.80334 77.324479 -204.62575 77.324479 L -208.89681 77.324479 L -208.89681 68.098169 z " />
    <path
       id="path5460"
       style="fill:#1e1e1e;fill-opacity:0.8;stroke-width:2.24783"
       d="M -205.41072 109.29565 A 49.999919 49.999919 0 0 0 -240.76101 123.93559 L -229.13795 135.55813 A 33.585772 33.585769 0 0 0 -238.9973 159.29622 A 33.585772 33.585769 0 0 0 -229.16327 183.03741 L -240.77135 194.646 A 49.999919 49.999919 0 0 0 -205.41072 209.29575 A 49.999919 49.999919 0 0 0 -170.05112 194.646 L -181.65971 183.03792 A 33.585772 33.585769 0 0 0 -171.82517 159.29622 A 33.585772 33.585769 0 0 0 -181.684 135.55865 L -170.06094 123.93559 A 49.999919 49.999919 0 0 0 -205.41072 109.29565 z M -205.41123 135.78551 A 23.510041 23.510039 0 0 1 -202.63466 135.97 A 23.510041 23.510039 0 0 1 -201.99077 136.06043 A 23.510041 23.510039 0 0 1 -199.56456 136.54464 A 23.510041 23.510039 0 0 1 -199.25347 136.61802 A 23.510041 23.510039 0 0 1 -196.52651 137.54613 A 23.510041 23.510039 0 0 1 -196.22058 137.68049 A 23.510041 23.510039 0 0 1 -193.85638 138.84889 A 23.510041 23.510039 0 0 1 -193.56131 139.0127 A 23.510041 23.510039 0 0 1 -188.9001 142.59285 A 23.510041 23.510039 0 0 1 -181.90052 159.2957 L -181.90052 159.29622 A 23.510041 23.510039 0 0 1 -188.79623 175.92518 A 23.510041 23.510039 0 0 1 -190.74856 177.67236 A 23.510041 23.510039 0 0 1 -192.88848 179.19165 A 23.510041 23.510039 0 0 1 -192.90709 179.20353 A 23.510041 23.510039 0 0 1 -195.17827 180.45927 A 23.510041 23.510039 0 0 1 -195.24131 180.48924 A 23.510041 23.510039 0 0 1 -197.64323 181.48453 A 23.510041 23.510039 0 0 1 -200.13869 182.20438 A 23.510041 23.510039 0 0 1 -200.21 182.22092 A 23.510041 23.510039 0 0 1 -202.73491 182.64983 A 23.510041 23.510039 0 0 1 -202.82793 182.6612 A 23.510041 23.510039 0 0 1 -205.41123 182.8059 A 23.510041 23.510039 0 0 1 -208.04312 182.65552 A 23.510041 23.510039 0 0 1 -222.02882 175.90244 L -222.03916 175.91278 A 23.510041 23.510039 0 0 1 -228.92143 159.2957 A 23.510041 23.510039 0 0 1 -221.92237 142.59285 A 23.510041 23.510039 0 0 1 -217.26116 139.0127 A 23.510041 23.510039 0 0 1 -216.96608 138.84889 A 23.510041 23.510039 0 0 1 -214.60137 137.68049 A 23.510041 23.510039 0 0 1 -214.29596 137.54613 A 23.510041 23.510039 0 0 1 -211.569 136.61802 A 23.510041 23.510039 0 0 1 -211.25791 136.54464 A 23.510041 23.510039 0 0 1 -208.8317 136.06043 A 23.510041 23.510039 0 0 1 -208.18781 135.97 A 23.510041 23.510039 0 0 1 -205.41123 135.78551 z M -215.17343 142.1505 L -215.17343 177.15043 L -207.28967 177.15043 L -207.28967 163.55591 L -195.94049 163.55591 L -195.94049 157.16095 L -207.28967 157.16095 L -207.28967 148.56974 L -194.93952 148.56974 L -194.93952 142.1505 L -215.17343 142.1505 z " />
  </g>
</svg>
