<?xml version="1.0" encoding="UTF-8" standalone="no"?>
<!-- Created with Inkscape (http://www.inkscape.org/) -->

<svg
   width="100mm"
   height="100mm"
   viewBox="0 0 100 100"
   version="1.1"
   id="svg3242"
   inkscape:version="1.2.1 (9c6d41e410, 2022-07-14)"
   sodipodi:docname="btn-img-exp.svg"
   inkscape:export-filename="Svelte\sv-kit\web\src\lib\btn-img-start.png"
   inkscape:export-xdpi="7.6199999"
   inkscape:export-ydpi="7.6199999"
   xmlns:inkscape="http://www.inkscape.org/namespaces/inkscape"
   xmlns:sodipodi="http://sodipodi.sourceforge.net/DTD/sodipodi-0.dtd"
   xmlns:xlink="http://www.w3.org/1999/xlink"
   xmlns="http://www.w3.org/2000/svg"
   xmlns:svg="http://www.w3.org/2000/svg">
  <sodipodi:namedview
     id="namedview3244"
     pagecolor="#ffffff"
     bordercolor="#666666"
     borderopacity="1.0"
     inkscape:showpageshadow="2"
     inkscape:pageopacity="0.0"
     inkscape:pagecheckerboard="true"
     inkscape:deskcolor="#d1d1d1"
     inkscape:document-units="mm"
     showgrid="false"
     inkscape:zoom="0.5272499"
     inkscape:cx="-78.710304"
     inkscape:cy="163.11051"
     inkscape:window-width="1920"
     inkscape:window-height="1017"
     inkscape:window-x="1918"
     inkscape:window-y="-8"
     inkscape:window-maximized="1"
     inkscape:current-layer="layer1" />
  <defs
     id="defs3239">
    <linearGradient
       inkscape:collect="always"
       id="linearGradient4008">
      <stop
         style="stop-color:#e6e6e6;stop-opacity:0.60000002;"
         offset="0"
         id="stop4004" />
      <stop
         style="stop-color:#e6e6e6;stop-opacity:0;"
         offset="1"
         id="stop4006" />
    </linearGradient>
    <linearGradient
       inkscape:collect="always"
       xlink:href="#linearGradient4008"
       id="linearGradient4010"
       x1="50.255611"
       y1="117.32954"
       x2="49.88274"
       y2="50.750202"
       gradientUnits="userSpaceOnUse"
       gradientTransform="matrix(0.9276027,0,0,1.0162686,-46.380138,17.375713)" />
  </defs>
  <g
     inkscape:label="Layer 1"
     inkscape:groupmode="layer"
     id="layer1">
    <path
       id="path14553"
       style="fill:#1e1e1e;fill-opacity:0.8;stroke-width:1.10736"
       d="M 50,-5e-5 A 50,50 0 0 0 -5.05e-5,49.999999 50,50 0 0 0 50,100.00005 50,50 0 0 0 100.00005,49.999999 50,50 0 0 0 50,-5e-5 Z M 27.30423,35.000914 c 0.51246,0.01467 0.97556,0.188017 1.31878,0.531234 L 50,56.909138 71.376992,35.532148 c 0.915246,-0.915245 2.683797,-0.620393 3.965133,0.660942 l 3.465421,3.464904 c 1.281335,1.281336 1.57567,3.049888 0.660425,3.965133 L 55.77846,67.313154 52.31304,70.778059 51.6521,71.439 C 51.23588,71.855209 50.64303,72.020028 50,71.956798 49.35697,72.020028 48.76411,71.855211 48.34791,71.439 L 47.68748,70.778059 44.22206,67.313154 20.53203,43.623127 c -0.91524,-0.915246 -0.62039,-2.6838 0.66094,-3.965133 L 24.6584,36.19309 c 0.80083,-0.800834 1.79174,-1.216619 2.64583,-1.192176 z" />
    <ellipse
       style="fill:url(#linearGradient4010);fill-opacity:1;stroke-width:1.24089"
       id="circle3946"
       cx="1.6021567e-06"
       cy="84.687103"
       rx="34.568161"
       ry="26.693441"
       transform="matrix(-0.70710678,0.70710678,0.70710678,0.70710678,0,0)" />
    <path
       id="path441"
       style="fill:#1e1e1e;fill-opacity:0.8;stroke-width:1.10736"
       d="M -114.04162,100.0001 A 50,50 0 0 1 -164.04167,50.000051 50,50 0 0 1 -114.04162,0 50,50 0 0 1 -64.041569,50.000051 50,50 0 0 1 -114.04162,100.0001 Z m -22.69577,-35.000964 c 0.51246,-0.01467 0.97556,-0.188017 1.31878,-0.531234 l 21.37699,-21.37699 21.376992,21.37699 c 0.915246,0.915245 2.683797,0.620393 3.965133,-0.660942 l 3.465421,-3.464904 c 1.281335,-1.281336 1.57567,-3.049888 0.660425,-3.965133 l -23.689511,-23.690027 -3.46542,-3.464905 -0.66094,-0.660941 c -0.41622,-0.416209 -1.00907,-0.581028 -1.6521,-0.517798 -0.64303,-0.06323 -1.23589,0.101587 -1.65209,0.517798 l -0.66043,0.660941 -3.46542,3.464905 -23.69003,23.690027 c -0.91524,0.915246 -0.62039,2.6838 0.66094,3.965133 l 3.46543,3.464904 c 0.80083,0.800834 1.79174,1.216619 2.64583,1.192176 z" />
    <path
       id="path10844"
       style="fill:#f57800;fill-opacity:1;stroke-width:1.10629"
       d="m -88.699606,63.80719 c -1.281337,1.281336 -3.049863,1.575882 -3.96511,0.660636 l -21.376794,-21.3768 -21.37712,21.377126 c -0.91525,0.915247 -2.68345,0.620374 -3.96479,-0.660961 l -3.46529,-3.465291 c -1.28134,-1.281334 -1.57621,-3.049541 -0.66097,-3.964788 l 23.69001,-23.689999 3.46529,-3.465292 0.66064,-0.660635 c 0.4162,-0.416211 1.0092,-0.581386 1.65223,-0.518154 0.64303,-0.06323 1.2357,0.101622 1.65192,0.517831 l 0.66095,0.66096 3.46529,3.465291 23.689672,23.689674 c 0.915246,0.915246 0.6207,2.683773 -0.660636,3.96511 z" />
  </g>
</svg>
