<?xml version="1.0" encoding="UTF-8" standalone="no"?>
<!-- Created with Inkscape (http://www.inkscape.org/) -->

<svg
   width="100mm"
   height="100mm"
   viewBox="0 0 100 100"
   version="1.1"
   id="svg3242"
   inkscape:version="1.2.1 (9c6d41e410, 2022-07-14)"
   sodipodi:docname="btn-img-cmd-orange.svg"
   inkscape:export-filename="Svelte\sv-kit\web\src\lib\btn-img-start.png"
   inkscape:export-xdpi="7.6199999"
   inkscape:export-ydpi="7.6199999"
   xmlns:inkscape="http://www.inkscape.org/namespaces/inkscape"
   xmlns:sodipodi="http://sodipodi.sourceforge.net/DTD/sodipodi-0.dtd"
   xmlns:xlink="http://www.w3.org/1999/xlink"
   xmlns="http://www.w3.org/2000/svg"
   xmlns:svg="http://www.w3.org/2000/svg">
  <sodipodi:namedview
     id="namedview3244"
     pagecolor="#ffffff"
     bordercolor="#666666"
     borderopacity="1.0"
     inkscape:showpageshadow="2"
     inkscape:pageopacity="0.0"
     inkscape:pagecheckerboard="true"
     inkscape:deskcolor="#d1d1d1"
     inkscape:document-units="mm"
     showgrid="false"
     inkscape:zoom="1.0544998"
     inkscape:cx="18.966338"
     inkscape:cy="239.92418"
     inkscape:window-width="1920"
     inkscape:window-height="1017"
     inkscape:window-x="1912"
     inkscape:window-y="1072"
     inkscape:window-maximized="1"
     inkscape:current-layer="layer1" />
  <defs
     id="defs3239">
    <linearGradient
       inkscape:collect="always"
       id="linearGradient4008">
      <stop
         style="stop-color:#e6e6e6;stop-opacity:0.60000002;"
         offset="0"
         id="stop4004" />
      <stop
         style="stop-color:#e6e6e6;stop-opacity:0;"
         offset="1"
         id="stop4006" />
    </linearGradient>
    <linearGradient
       inkscape:collect="always"
       xlink:href="#linearGradient4008"
       id="linearGradient4010"
       x1="50.255611"
       y1="117.32954"
       x2="49.88274"
       y2="50.750202"
       gradientUnits="userSpaceOnUse"
       gradientTransform="matrix(0.9276027,0,0,1.0162686,-46.380138,17.375713)" />
  </defs>
  <g
     inkscape:label="Layer 1"
     inkscape:groupmode="layer"
     id="layer1">
    <path
       id="path347"
       style="fill:#3cd200;stroke-width:4.57004;stroke-opacity:0.7;fill-opacity:1"
       d="M 59.119906 8.0000285 A 9.2118444 9.2118444 0 0 1 49.994364 16.228467 A 9.2118444 9.2118444 0 0 1 40.86934 8.0113973 A 42.988608 42.988608 0 0 0 26.786995 13.852901 A 9.2118444 9.2118444 0 0 1 26.110551 26.12192 A 9.2118444 9.2118444 0 0 1 13.858586 26.772009 A 42.988608 42.988608 0 0 0 8.0000285 40.880709 A 9.2118444 9.2118444 0 0 1 16.218132 50.005733 A 9.2118444 9.2118444 0 0 1 8.0057129 59.16073 A 42.988608 42.988608 0 0 0 13.851351 73.228605 A 9.2118444 9.2118444 0 0 1 19.252055 71.198238 A 9.2118444 9.2118444 0 0 1 26.110551 73.88903 A 9.2118444 9.2118444 0 0 1 26.786995 86.158049 A 42.988608 42.988608 0 0 0 40.86934 91.999552 A 9.2118444 9.2118444 0 0 1 49.994364 83.781966 A 9.2118444 9.2118444 0 0 1 59.119389 92.000069 A 42.988608 42.988608 0 0 0 73.228088 86.141512 A 9.2118444 9.2118444 0 0 1 73.878178 73.88903 A 9.2118444 9.2118444 0 0 1 80.047827 71.198238 A 9.2118444 9.2118444 0 0 1 86.132727 73.234806 A 42.988608 42.988608 0 0 0 91.9887 59.130758 A 9.2118444 9.2118444 0 0 1 83.771631 50.005733 A 9.2118444 9.2118444 0 0 1 92.000069 40.880192 A 42.988608 42.988608 0 0 0 86.150297 26.754956 A 9.2118444 9.2118444 0 0 1 73.878178 26.12192 A 9.2118444 9.2118444 0 0 1 73.244625 13.849801 A 42.988608 42.988608 0 0 0 59.119906 8.0000285 z M 49.994364 22.370211 A 27.635534 27.635534 0 0 1 77.629887 50.005733 A 27.635534 27.635534 0 0 1 49.994364 77.641256 A 27.635534 27.635534 0 0 1 22.358842 50.005733 A 27.635534 27.635534 0 0 1 49.994364 22.370211 z M 45.988407 32.499825 L 46.877242 56.233777 L 53.026737 56.233777 L 53.963631 32.499825 L 45.988407 32.499825 z M 50.02382 59.572591 C 48.758671 59.572591 47.701723 59.941278 46.852954 60.67795 C 46.020195 61.414622 45.603935 62.35935 45.603935 63.512402 C 45.603935 64.617411 46.020195 65.562138 46.852954 66.346855 C 47.685713 67.115557 48.742651 67.500273 50.02382 67.500273 C 51.321009 67.500273 52.370186 67.12383 53.170915 66.371143 C 53.987654 65.618456 54.396163 64.665455 54.396163 63.512402 C 54.396163 62.375364 53.987654 61.438393 53.170915 60.701721 C 52.354166 59.949034 51.304989 59.572591 50.02382 59.572591 z " />
    <ellipse
       style="fill:url(#linearGradient4010);fill-opacity:1;stroke-width:1.24089"
       id="circle3946"
       cx="1.6021567e-06"
       cy="84.687103"
       rx="34.568161"
       ry="26.693441"
       transform="matrix(-0.70710678,0.70710678,0.70710678,0.70710678,0,0)" />
    <path
       id="path293"
       style="fill:#1e1e1e;fill-opacity:0.8;stroke-width:1.32883"
       d="m -151.08337,-4.75e-5 a 50,50 0 0 0 -50.00008,50.0000495 50,50 0 0 0 50.00008,50.000048 50,50 0 0 0 50.00008,-50.000048 50,50 0 0 0 -50.00008,-50.0000495 z m 9.11987,8.000028 a 42.988608,42.988608 0 0 1 14.12472,5.8497725 9.2118444,9.2118444 0 0 0 0.63355,12.27212 9.2118444,9.2118444 0 0 0 12.27213,0.633036 42.988608,42.988608 0 0 1 5.84977,14.125236 9.2118444,9.2118444 0 0 0 -8.22844,9.125541 9.2118444,9.2118444 0 0 0 8.21708,9.125024 42.988608,42.988608 0 0 1 -5.85598,14.104049 9.2118444,9.2118444 0 0 0 -6.0849,-2.036568 9.2118444,9.2118444 0 0 0 -6.16966,2.690792 9.2118444,9.2118444 0 0 0 -0.65009,12.252485 42.988608,42.988608 0 0 1 -14.1087,5.858549 9.2118444,9.2118444 0 0 0 -9.12503,-8.2181 9.2118444,9.2118444 0 0 0 -9.12504,8.21759 42.988608,42.988608 0 0 1 -14.08235,-5.841509 9.2118444,9.2118444 0 0 0 -0.67645,-12.269015 9.2118444,9.2118444 0 0 0 -6.85849,-2.690792 9.2118444,9.2118444 0 0 0 -5.40071,2.030367 42.988608,42.988608 0 0 1 -5.84564,-14.067875 9.2118444,9.2118444 0 0 0 8.21242,-9.154997 9.2118444,9.2118444 0 0 0 -8.21811,-9.125024 42.988608,42.988608 0 0 1 5.85857,-14.1087 9.2118444,9.2118444 0 0 0 12.25196,-0.650089 9.2118444,9.2118444 0 0 0 0.67645,-12.269019 42.988608,42.988608 0 0 1 14.08235,-5.8415045 9.2118444,9.2118444 0 0 0 9.12504,8.2170705 9.2118444,9.2118444 0 0 0 9.12555,-8.2284395 z m -9.12555,14.3701835 a 27.635534,27.635534 0 0 0 -27.63555,27.635522 27.635534,27.635534 0 0 0 27.63555,27.635522 27.635534,27.635534 0 0 0 27.63553,-27.635522 27.635534,27.635534 0 0 0 -27.63553,-27.635522 z m -4.00596,10.129614 h 7.97522 l -0.93689,23.733952 h -6.1495 z m 4.03541,27.072766 c 1.28117,0 2.33035,0.376442 3.1471,1.12913 0.81674,0.736673 1.22525,1.673642 1.22525,2.810681 0,1.153054 -0.40851,2.106053 -1.22525,2.85874 -0.80073,0.752688 -1.84991,1.12913 -3.1471,1.12913 -1.28117,0 -2.3381,-0.384715 -3.17086,-1.153418 -0.83276,-0.784717 -1.24902,-1.729442 -1.24902,-2.834452 0,-1.153053 0.41626,-2.097779 1.24902,-2.834452 0.84877,-0.736673 1.90571,-1.105359 3.17086,-1.105359 z" />
  </g>
</svg>
