<?xml version="1.0" encoding="UTF-8" standalone="no"?>
<!-- Created with Inkscape (http://www.inkscape.org/) -->

<svg
   width="100mm"
   height="100mm"
   viewBox="0 0 100 100"
   version="1.1"
   id="svg3242"
   inkscape:version="1.2.2 (732a01da63, 2022-12-09)"
   sodipodi:docname="btn-img-vlv-vent.svg"
   inkscape:export-filename="Svelte\sv-kit\web\src\lib\btn-img-start.png"
   inkscape:export-xdpi="7.6199999"
   inkscape:export-ydpi="7.6199999"
   xmlns:inkscape="http://www.inkscape.org/namespaces/inkscape"
   xmlns:sodipodi="http://sodipodi.sourceforge.net/DTD/sodipodi-0.dtd"
   xmlns:xlink="http://www.w3.org/1999/xlink"
   xmlns="http://www.w3.org/2000/svg"
   xmlns:svg="http://www.w3.org/2000/svg">
  <sodipodi:namedview
     id="namedview3244"
     pagecolor="#ffffff"
     bordercolor="#666666"
     borderopacity="1.0"
     inkscape:showpageshadow="2"
     inkscape:pageopacity="0.0"
     inkscape:pagecheckerboard="true"
     inkscape:deskcolor="#d1d1d1"
     inkscape:document-units="mm"
     showgrid="false"
     inkscape:zoom="0.74564396"
     inkscape:cx="-471.40461"
     inkscape:cy="234.69646"
     inkscape:window-width="1920"
     inkscape:window-height="1017"
     inkscape:window-x="3832"
     inkscape:window-y="-8"
     inkscape:window-maximized="1"
     inkscape:current-layer="layer1" />
  <defs
     id="defs3239">
    <linearGradient
       inkscape:collect="always"
       id="linearGradient4008">
      <stop
         style="stop-color:#e6e6e6;stop-opacity:0.60000002;"
         offset="0"
         id="stop4004" />
      <stop
         style="stop-color:#e6e6e6;stop-opacity:0;"
         offset="1"
         id="stop4006" />
    </linearGradient>
    <linearGradient
       inkscape:collect="always"
       xlink:href="#linearGradient4008"
       id="linearGradient4010"
       x1="50.255611"
       y1="117.32954"
       x2="49.88274"
       y2="50.750202"
       gradientUnits="userSpaceOnUse"
       gradientTransform="matrix(0.9276027,0,0,1.0162686,-46.380138,17.375713)" />
  </defs>
  <g
     inkscape:label="Layer 1"
     inkscape:groupmode="layer"
     id="layer1">
    <path
       id="path293"
       style="fill:#32e6e6;stroke-width:2.85038;stroke-opacity:0.7;fill-opacity:1"
       d="M 49.992814 5.0007284 A 45 45 0 0 0 5.0002116 50.000049 A 45 45 0 0 0 5.0007284 50.007284 L 16.437756 50.006767 A 33.585772 33.585769 45 0 1 26.251111 26.251111 A 33.585772 33.585769 45 0 1 49.993331 16.417086 L 49.992814 5.0007284 z M 50.010384 26.49244 A 23.510041 23.510039 45 0 0 33.375741 33.375224 L 33.375224 33.375741 A 23.510041 23.510039 45 0 0 26.514144 50.135441 A 23.510041 23.510039 45 0 0 27.278438 55.962992 A 23.510041 23.510039 45 0 0 27.370939 56.28752 A 23.510041 23.510039 45 0 0 28.216882 58.785559 A 23.510041 23.510039 45 0 0 28.338322 59.097168 A 23.510041 23.510039 45 0 0 29.610079 61.681506 A 23.510041 23.510039 45 0 0 29.778544 61.953324 A 23.510041 23.510039 45 0 0 31.151587 64.01108 A 23.510041 23.510039 45 0 0 31.543294 64.530428 A 23.510041 23.510039 45 0 0 33.375741 66.624357 A 23.510041 23.510039 45 0 0 35.46967 68.45732 A 23.510041 23.510039 45 0 0 35.989018 68.848511 A 23.510041 23.510039 45 0 0 38.046773 70.221554 A 23.510041 23.510039 45 0 0 38.318591 70.390019 A 23.510041 23.510039 45 0 0 40.90293 71.661776 A 23.510041 23.510039 45 0 0 41.214022 71.782699 A 23.510041 23.510039 45 0 0 43.712061 72.628642 A 23.510041 23.510039 45 0 0 44.037105 72.721659 A 23.510041 23.510039 45 0 0 49.86414 73.485437 A 23.510041 23.510039 45 0 0 66.62384 66.624357 A 23.510041 23.510039 45 0 0 73.507658 50.0078 L 73.493188 50.0078 A 23.510041 23.510039 45 0 0 68.378772 35.343579 A 23.510041 23.510039 45 0 0 66.62384 33.376257 A 23.510041 23.510039 45 0 0 64.695276 31.651815 A 23.510041 23.510039 45 0 0 64.621895 31.593937 A 23.510041 23.510039 45 0 0 62.532617 30.11134 A 23.510041 23.510039 45 0 0 62.470605 30.0731 A 23.510041 23.510039 45 0 0 60.196842 28.817362 A 23.510041 23.510039 45 0 0 57.794922 27.823108 A 23.510041 23.510039 45 0 0 57.729293 27.799337 A 23.510041 23.510039 45 0 0 55.234871 27.081551 A 23.510041 23.510039 45 0 0 55.213167 27.0769 A 23.510041 23.510039 45 0 0 52.626245 26.637651 A 23.510041 23.510039 45 0 0 50.010384 26.49244 z M 33.549373 34.617008 L 42.043429 34.617008 L 49.341174 58.975212 C 49.731694 60.293202 49.967265 61.456606 50.048625 62.465438 L 50.195386 62.465438 C 50.309286 61.375249 50.561409 60.179262 50.951929 58.877543 L 58.201099 34.617008 L 66.450724 34.617008 L 54.393062 69.616939 L 45.460274 69.616939 L 33.549373 34.617008 z M 83.583012 50.007284 A 33.585772 33.585769 45 0 1 73.748987 73.748987 A 33.585772 33.585769 45 0 1 49.992297 83.562341 L 49.992297 94.999369 A 45 45 0 0 0 50.000049 94.999886 A 45 45 0 0 0 94.999369 50.007284 L 83.583012 50.007284 z " />
    <ellipse
       style="fill:url(#linearGradient4010);fill-opacity:1;stroke-width:1.24089"
       id="circle3946"
       cx="1.6021567e-06"
       cy="84.687103"
       rx="34.568161"
       ry="26.693441"
       transform="matrix(-0.70710678,0.70710678,0.70710678,0.70710678,0,0)" />
    <path
       id="path349"
       style="fill:#1e1e1e;fill-opacity:0.8;stroke-width:2.24783"
       d="M -55.840318,4.6777877e-4 -55.839798,16.417037 a 33.585772,33.585769 45 0 0 -23.742221,9.834025 33.585772,33.585769 45 0 0 -9.81336,23.755656 l -16.437751,5.17e-4 a 49.999919,49.999919 0 0 0 14.644062,35.347713 49.999919,49.999919 0 0 0 35.34823,14.644585 v -16.43724 a 33.585772,33.585769 45 0 0 23.756689,-9.813355 33.585772,33.585769 45 0 0 9.834031,-23.741703 H -5.833549 A 49.999919,49.999919 0 0 0 -20.478138,14.644536 49.999919,49.999919 0 0 0 -55.840318,4.6777877e-4 Z M -55.822748,26.492391 a 23.510041,23.510039 45 0 1 2.615859,0.145211 23.510041,23.510039 45 0 1 2.586921,0.43925 23.510041,23.510039 45 0 1 0.02171,0.0047 23.510041,23.510039 45 0 1 2.494419,0.717785 23.510041,23.510039 45 0 1 0.06563,0.02377 23.510041,23.510039 45 0 1 2.401921,0.994254 23.510041,23.510039 45 0 1 2.27376,1.255737 23.510041,23.510039 45 0 1 0.06201,0.03824 23.510041,23.510039 45 0 1 2.08928,1.482597 23.510041,23.510039 45 0 1 0.07338,0.05788 23.510041,23.510039 45 0 1 1.92857,1.724443 23.510041,23.510039 45 0 1 1.754929,1.967322 23.510041,23.510039 45 0 1 5.114421,14.664221 h 0.01446 a 23.510041,23.510039 45 0 1 -6.88381,16.616507 23.510041,23.510039 45 0 1 -16.759699,6.86108 23.510041,23.510039 45 0 1 -5.82704,-0.763777 23.510041,23.510039 45 0 1 -0.32504,-0.09302 23.510041,23.510039 45 0 1 -2.49804,-0.845941 23.510041,23.510039 45 0 1 -0.31109,-0.120923 23.510041,23.510039 45 0 1 -2.58434,-1.271757 23.510041,23.510039 45 0 1 -0.27182,-0.168465 23.510041,23.510039 45 0 1 -2.05776,-1.373043 23.510041,23.510039 45 0 1 -0.51934,-0.39119 23.510041,23.510039 45 0 1 -2.09393,-1.832964 23.510041,23.510039 45 0 1 -1.832451,-2.093929 23.510041,23.510039 45 0 1 -0.391709,-0.519348 23.510041,23.510039 45 0 1 -1.37304,-2.057755 23.510041,23.510039 45 0 1 -0.16846,-0.271818 23.510041,23.510039 45 0 1 -1.27176,-2.584338 23.510041,23.510039 45 0 1 -0.12144,-0.311609 23.510041,23.510039 45 0 1 -0.84594,-2.498039 23.510041,23.510039 45 0 1 -0.09251,-0.324528 23.510041,23.510039 45 0 1 -0.764291,-5.827551 23.510041,23.510039 45 0 1 6.861081,-16.759701 l 5.2e-4,-5.17e-4 a 23.510041,23.510039 45 0 1 16.634639,-6.882784 z m -16.46101,8.124569 11.9109,34.999931 h 8.93279 l 12.05766,-34.999931 h -8.249621 l -7.249169,24.260535 c -0.39052,1.30172 -0.64265,2.497704 -0.75655,3.587894 h -0.14676 c -0.08136,-1.008833 -0.31693,-2.172234 -0.70745,-3.490226 L -63.789699,34.61696 Z" />
  </g>
</svg>
