<?xml version="1.0" encoding="UTF-8" standalone="no"?>
<!-- Created with Inkscape (http://www.inkscape.org/) -->

<svg
   width="100mm"
   height="100mm"
   viewBox="0 0 100 100"
   version="1.1"
   id="svg3242"
   inkscape:version="1.2.1 (9c6d41e410, 2022-07-14)"
   sodipodi:docname="btn-img-hdr.svg"
   inkscape:export-filename="Svelte\sv-kit\web\src\lib\btn-img-start.png"
   inkscape:export-xdpi="7.6199999"
   inkscape:export-ydpi="7.6199999"
   xmlns:inkscape="http://www.inkscape.org/namespaces/inkscape"
   xmlns:sodipodi="http://sodipodi.sourceforge.net/DTD/sodipodi-0.dtd"
   xmlns:xlink="http://www.w3.org/1999/xlink"
   xmlns="http://www.w3.org/2000/svg"
   xmlns:svg="http://www.w3.org/2000/svg">
  <sodipodi:namedview
     id="namedview3244"
     pagecolor="#ffffff"
     bordercolor="#666666"
     borderopacity="1.0"
     inkscape:showpageshadow="2"
     inkscape:pageopacity="0.0"
     inkscape:pagecheckerboard="true"
     inkscape:deskcolor="#d1d1d1"
     inkscape:document-units="mm"
     showgrid="false"
     inkscape:zoom="0.5272499"
     inkscape:cx="-232.33764"
     inkscape:cy="436.22578"
     inkscape:window-width="1920"
     inkscape:window-height="1017"
     inkscape:window-x="1918"
     inkscape:window-y="-8"
     inkscape:window-maximized="1"
     inkscape:current-layer="layer1" />
  <defs
     id="defs3239">
    <linearGradient
       inkscape:collect="always"
       id="linearGradient4008">
      <stop
         style="stop-color:#e6e6e6;stop-opacity:0.60000002;"
         offset="0"
         id="stop4004" />
      <stop
         style="stop-color:#e6e6e6;stop-opacity:0;"
         offset="1"
         id="stop4006" />
    </linearGradient>
    <linearGradient
       inkscape:collect="always"
       xlink:href="#linearGradient4008"
       id="linearGradient4010"
       x1="50.255611"
       y1="117.32954"
       x2="49.88274"
       y2="50.750202"
       gradientUnits="userSpaceOnUse"
       gradientTransform="matrix(0.9276027,0,0,1.0162686,-46.380138,17.375713)" />
  </defs>
  <g
     inkscape:label="Layer 1"
     inkscape:groupmode="layer"
     id="layer1">
    <path
       id="path3749"
       style="fill:#1e1e1e;fill-opacity:0.8;stroke-width:1.32883"
       d="M 50.000002,-5e-5 A 50,50 0 0 0 -4.665e-5,50 50,50 0 0 0 50.000002,100.00005 50,50 0 0 0 100.00005,50 50,50 0 0 0 50.000002,-5e-5 Z m 9.119857,8.00003 a 42.988608,42.988608 0 0 1 14.12472,5.84977 9.2118444,9.2118444 0 0 0 0.633553,12.27212 9.2118444,9.2118444 0 0 0 12.272119,0.63304 42.988608,42.988608 0 0 1 5.849772,14.12524 9.2118444,9.2118444 0 0 0 -8.228438,9.12554 9.2118444,9.2118444 0 0 0 8.217069,9.12502 42.988608,42.988608 0 0 1 -5.855973,14.10405 9.2118444,9.2118444 0 0 0 -6.0849,-2.03657 9.2118444,9.2118444 0 0 0 -6.169649,2.69079 9.2118444,9.2118444 0 0 0 -0.65009,12.25249 42.988608,42.988608 0 0 1 -14.108699,5.85855 9.2118444,9.2118444 0 0 0 -9.125025,-8.2181 9.2118444,9.2118444 0 0 0 -9.125024,8.21759 A 42.988608,42.988608 0 0 1 26.786949,86.158 9.2118444,9.2118444 0 0 0 26.110505,73.88898 9.2118444,9.2118444 0 0 0 19.252009,71.19819 9.2118444,9.2118444 0 0 0 13.851305,73.22856 42.988608,42.988608 0 0 1 8.0056667,59.16068 9.2118444,9.2118444 0 0 0 16.218085,50.00569 9.2118444,9.2118444 0 0 0 7.9999817,40.88066 42.988608,42.988608 0 0 1 13.858539,26.77196 9.2118444,9.2118444 0 0 0 26.110505,26.12187 9.2118444,9.2118444 0 0 0 26.786949,13.85285 42.988608,42.988608 0 0 1 40.869294,8.01135 9.2118444,9.2118444 0 0 0 49.994318,16.22842 9.2118444,9.2118444 0 0 0 59.119859,7.99998 Z M 49.994318,22.37016 A 27.635534,27.635534 0 0 0 22.358796,50.00569 27.635534,27.635534 0 0 0 49.994318,77.64121 27.635534,27.635534 0 0 0 77.629841,50.00569 27.635534,27.635534 0 0 0 49.994318,22.37016 Z m -16.437239,8.62997 h 8.559167 V 46.15734 H 57.856887 V 31.00013 h 8.586039 V 68.99988 H 57.856887 V 53.52433 H 42.116246 v 15.47555 h -8.559167 z" />
    <ellipse
       style="fill:url(#linearGradient4010);fill-opacity:1;stroke-width:1.24089"
       id="circle3946"
       cx="1.6021567e-06"
       cy="84.687103"
       rx="34.568161"
       ry="26.693441"
       transform="matrix(-0.70710678,0.70710678,0.70710678,0.70710678,0,0)" />
  </g>
</svg>
