<?xml version="1.0" encoding="UTF-8" standalone="no"?>
<!-- Created with Inkscape (http://www.inkscape.org/) -->

<svg
   width="100mm"
   height="100mm"
   viewBox="0 0 100 100"
   version="1.1"
   id="svg3242"
   inkscape:version="1.2.1 (9c6d41e410, 2022-07-14)"
   sodipodi:docname="btn-img-sta.svg"
   inkscape:export-filename="Svelte\sv-kit\web\src\lib\btn-img-start.png"
   inkscape:export-xdpi="7.6199999"
   inkscape:export-ydpi="7.6199999"
   xmlns:inkscape="http://www.inkscape.org/namespaces/inkscape"
   xmlns:sodipodi="http://sodipodi.sourceforge.net/DTD/sodipodi-0.dtd"
   xmlns:xlink="http://www.w3.org/1999/xlink"
   xmlns="http://www.w3.org/2000/svg"
   xmlns:svg="http://www.w3.org/2000/svg">
  <sodipodi:namedview
     id="namedview3244"
     pagecolor="#ffffff"
     bordercolor="#666666"
     borderopacity="1.0"
     inkscape:showpageshadow="2"
     inkscape:pageopacity="0.0"
     inkscape:pagecheckerboard="true"
     inkscape:deskcolor="#d1d1d1"
     inkscape:document-units="mm"
     showgrid="false"
     inkscape:zoom="1.0544998"
     inkscape:cx="107.63397"
     inkscape:cy="191.56002"
     inkscape:window-width="1920"
     inkscape:window-height="1017"
     inkscape:window-x="1918"
     inkscape:window-y="-8"
     inkscape:window-maximized="1"
     inkscape:current-layer="layer1" />
  <defs
     id="defs3239">
    <linearGradient
       inkscape:collect="always"
       id="linearGradient4008">
      <stop
         style="stop-color:#e6e6e6;stop-opacity:0.60000002;"
         offset="0"
         id="stop4004" />
      <stop
         style="stop-color:#e6e6e6;stop-opacity:0;"
         offset="1"
         id="stop4006" />
    </linearGradient>
    <linearGradient
       inkscape:collect="always"
       xlink:href="#linearGradient4008"
       id="linearGradient4010"
       x1="50.255611"
       y1="117.32954"
       x2="49.88274"
       y2="50.750202"
       gradientUnits="userSpaceOnUse"
       gradientTransform="matrix(0.9276027,0,0,1.0162686,-46.380138,17.375713)" />
  </defs>
  <g
     inkscape:label="Layer 1"
     inkscape:groupmode="layer"
     id="layer1">
    <path
       id="path3749"
       style="fill:#1e1e1e;fill-opacity:0.8;stroke-width:1.32883"
       d="M 50,-5e-5 A 50,50 0 0 0 -5e-5,49.999999 50,50 0 0 0 50,100.00005 50,50 0 0 0 100.00005,49.999999 50,50 0 0 0 50,-5e-5 Z m 9.11986,8.000029 a 42.988608,42.988608 0 0 1 14.12472,5.849772 9.2118444,9.2118444 0 0 0 0.63355,12.272119 9.2118444,9.2118444 0 0 0 12.27212,0.633036 42.988608,42.988608 0 0 1 5.84977,14.125236 9.2118444,9.2118444 0 0 0 -8.22844,9.125541 9.2118444,9.2118444 0 0 0 8.21707,9.125025 42.988608,42.988608 0 0 1 -5.85597,14.104049 9.2118444,9.2118444 0 0 0 -6.0849,-2.036569 9.2118444,9.2118444 0 0 0 -6.16965,2.690792 9.2118444,9.2118444 0 0 0 -0.65009,12.25248 42.988608,42.988608 0 0 1 -14.1087,5.85856 9.2118444,9.2118444 0 0 0 -9.12502,-8.2181 A 9.2118444,9.2118444 0 0 0 40.86929,91.9995 42.988608,42.988608 0 0 1 26.78695,86.158 9.2118444,9.2118444 0 0 0 26.1105,73.88898 9.2118444,9.2118444 0 0 0 19.25201,71.198188 9.2118444,9.2118444 0 0 0 13.8513,73.228555 42.988608,42.988608 0 0 1 8.00566,59.16068 9.2118444,9.2118444 0 0 0 16.21808,50.005683 9.2118444,9.2118444 0 0 0 7.99998,40.880659 42.988608,42.988608 0 0 1 13.85854,26.771959 9.2118444,9.2118444 0 0 0 26.1105,26.12187 9.2118444,9.2118444 0 0 0 26.78695,13.852851 42.988608,42.988608 0 0 1 40.86929,8.011348 9.2118444,9.2118444 0 0 0 49.99432,16.228417 9.2118444,9.2118444 0 0 0 59.11986,7.999979 Z M 49.99432,22.370161 A 27.635534,27.635534 0 0 0 22.35879,50.005683 27.635534,27.635534 0 0 0 49.99432,77.641206 27.635534,27.635534 0 0 0 77.62984,50.005683 27.635534,27.635534 0 0 0 49.99432,22.370161 Z m 1.95388,7.283793 c 2.04878,0 3.85958,0.127859 5.43274,0.383956 1.59147,0.237805 3.05507,0.612802 4.39043,1.124996 v 8.204667 C 61.11284,38.910257 60.39013,38.507455 59.60355,38.159895 58.83526,37.812334 58.03978,37.528813 57.21661,37.309301 56.39344,37.071496 55.57017,36.897642 54.747,36.787886 53.94212,36.67813 53.17393,36.623555 52.44223,36.623555 c -1.0061,0 -1.92085,0.100571 -2.74402,0.30179 -0.82317,0.182926 -1.51859,0.448256 -2.08566,0.795817 -0.56707,0.34756 -1.00574,0.768037 -1.31672,1.261938 -0.31097,0.47561 -0.46663,1.015365 -0.46663,1.619023 0,0.658536 0.17385,1.252867 0.52141,1.783354 0.34756,0.512194 0.84132,1.006471 1.48156,1.48208 0.64025,0.457316 1.41804,0.914693 2.33268,1.372009 0.91463,0.439024 1.94815,0.895884 3.10058,1.371493 1.57317,0.658535 2.98168,1.36305 4.22559,2.113049 1.26219,0.731706 2.34118,1.56408 3.23752,2.497005 0.89634,0.932926 1.58267,2.002825 2.05828,3.21014 0.47561,1.189023 0.71313,2.579344 0.71313,4.170805 0,2.195119 -0.42048,4.042816 -1.26194,5.542814 -0.82317,1.481705 -1.94816,2.689076 -3.37499,3.622001 -1.42682,0.914633 -3.09157,1.573152 -4.99401,1.97559 -1.88414,0.402439 -3.8784,0.603581 -5.98206,0.603581 -2.15853,0 -4.21647,-0.182951 -6.17378,-0.548804 -1.93902,-0.365853 -3.62196,-0.914705 -5.04879,-1.646411 v -8.780342 c 1.59146,1.335363 3.3204,2.341592 5.18625,3.01842 1.86585,0.658536 3.74993,0.987537 5.65236,0.987537 1.11586,0 2.08518,-0.100572 2.90835,-0.301791 0.84147,-0.201219 1.53689,-0.475645 2.08567,-0.823205 0.56707,-0.365854 0.98754,-0.78633 1.26193,-1.261939 0.27439,-0.493902 0.41186,-1.024562 0.41186,-1.591634 0,-0.768292 -0.21985,-1.454098 -0.65887,-2.057756 -0.43902,-0.603657 -1.04245,-1.161605 -1.81074,-1.673799 -0.75,-0.512195 -1.64656,-1.006471 -2.68924,-1.48208 -1.04268,-0.475609 -2.16768,-0.960273 -3.37499,-1.454175 -3.07317,-1.280486 -5.36863,-2.844145 -6.88692,-4.691703 -1.5,-1.847559 -2.24999,-4.079349 -2.24999,-6.695199 0,-2.048777 0.41138,-3.805 1.23455,-5.268412 0.82317,-1.481705 1.93906,-2.698172 3.3476,-3.64939 1.42683,-0.951218 3.07338,-1.646637 4.93923,-2.085661 1.86585,-0.457316 3.84141,-0.685746 5.92677,-0.685746 z" />
    <ellipse
       style="fill:url(#linearGradient4010);fill-opacity:1;stroke-width:1.24089"
       id="circle3946"
       cx="1.6021567e-06"
       cy="84.687103"
       rx="34.568161"
       ry="26.693441"
       transform="matrix(-0.70710678,0.70710678,0.70710678,0.70710678,0,0)" />
  </g>
</svg>
