<?xml version="1.0" encoding="UTF-8" standalone="no"?>
<!-- Created with Inkscape (http://www.inkscape.org/) -->

<svg
   width="100mm"
   height="100mm"
   viewBox="0 0 100 100"
   version="1.1"
   id="svg3242"
   inkscape:version="1.2.2 (732a01da63, 2022-12-09)"
   sodipodi:docname="btn-img-vlv-build-green.svg"
   inkscape:export-filename="Svelte\sv-kit\web\src\lib\btn-img-start.png"
   inkscape:export-xdpi="7.6199999"
   inkscape:export-ydpi="7.6199999"
   xmlns:inkscape="http://www.inkscape.org/namespaces/inkscape"
   xmlns:sodipodi="http://sodipodi.sourceforge.net/DTD/sodipodi-0.dtd"
   xmlns:xlink="http://www.w3.org/1999/xlink"
   xmlns="http://www.w3.org/2000/svg"
   xmlns:svg="http://www.w3.org/2000/svg">
  <sodipodi:namedview
     id="namedview3244"
     pagecolor="#ffffff"
     bordercolor="#666666"
     borderopacity="1.0"
     inkscape:showpageshadow="2"
     inkscape:pageopacity="0.0"
     inkscape:pagecheckerboard="true"
     inkscape:deskcolor="#d1d1d1"
     inkscape:document-units="mm"
     showgrid="false"
     inkscape:zoom="1.4912879"
     inkscape:cx="-90.52578"
     inkscape:cy="172.33426"
     inkscape:window-width="1920"
     inkscape:window-height="1017"
     inkscape:window-x="3832"
     inkscape:window-y="-8"
     inkscape:window-maximized="1"
     inkscape:current-layer="layer1" />
  <defs
     id="defs3239">
    <linearGradient
       inkscape:collect="always"
       id="linearGradient4008">
      <stop
         style="stop-color:#e6e6e6;stop-opacity:0.60000002;"
         offset="0"
         id="stop4004" />
      <stop
         style="stop-color:#e6e6e6;stop-opacity:0;"
         offset="1"
         id="stop4006" />
    </linearGradient>
    <linearGradient
       inkscape:collect="always"
       xlink:href="#linearGradient4008"
       id="linearGradient4010"
       x1="50.255611"
       y1="117.32954"
       x2="49.88274"
       y2="50.750202"
       gradientUnits="userSpaceOnUse"
       gradientTransform="matrix(0.9276027,0,0,1.0162686,-46.380138,17.375713)" />
  </defs>
  <g
     inkscape:label="Layer 1"
     inkscape:groupmode="layer"
     id="layer1">
    <path
       id="path239"
       style="fill:#3cd200;fill-opacity:1;stroke-width:3.34363;stroke-opacity:0.7"
       d="M 50.000049 5.0002116 A 45 45 0 0 0 18.197339 18.207674 L 26.262996 26.272815 A 33.585769 33.585772 0 0 1 50.000049 16.413985 A 33.585769 33.585772 0 0 1 73.742269 26.248527 L 81.812577 18.177702 A 45 45 0 0 0 50.000049 5.0002116 z M 49.999532 26.489339 A 23.510039 23.510041 0 0 0 33.297192 33.488912 A 23.510039 23.510041 0 0 0 29.717049 38.150126 A 23.510039 23.510041 0 0 0 29.553235 38.445199 A 23.510039 23.510041 0 0 0 28.384831 40.809395 A 23.510039 23.510041 0 0 0 28.249955 41.11532 A 23.510039 23.510041 0 0 0 27.322363 43.842285 A 23.510039 23.510041 0 0 0 27.248983 44.153377 A 23.510039 23.510041 0 0 0 26.764775 46.579586 A 23.510039 23.510041 0 0 0 26.674341 47.223474 A 23.510039 23.510041 0 0 0 26.489339 50.000049 A 23.510039 23.510041 0 0 0 26.674341 52.776624 A 23.510039 23.510041 0 0 0 26.764775 53.420512 A 23.510039 23.510041 0 0 0 27.248983 55.84672 A 23.510039 23.510041 0 0 0 27.322363 56.157812 A 23.510039 23.510041 0 0 0 28.249955 58.884778 A 23.510039 23.510041 0 0 0 28.384831 59.190186 A 23.510039 23.510041 0 0 0 29.553235 61.554899 A 23.510039 23.510041 0 0 0 29.717049 61.849972 A 23.510039 23.510041 0 0 0 33.297192 66.511186 A 23.510039 23.510041 0 0 0 49.999532 73.510242 A 23.510039 23.510041 0 0 0 66.617122 66.627974 L 66.606787 66.617639 A 23.510039 23.510041 0 0 0 73.359347 52.63193 A 23.510039 23.510041 0 0 0 73.509725 50.000049 A 23.510039 23.510041 0 0 0 73.365031 47.416744 A 23.510039 23.510041 0 0 0 73.354179 47.323726 A 23.510039 23.510041 0 0 0 72.925264 44.798816 A 23.510039 23.510041 0 0 0 72.908728 44.727502 A 23.510039 23.510041 0 0 0 72.188875 42.232048 A 23.510039 23.510041 0 0 0 71.19307 39.830127 A 23.510039 23.510041 0 0 0 71.163615 39.767082 A 23.510039 23.510041 0 0 0 69.907878 37.495903 A 23.510039 23.510041 0 0 0 69.895475 37.477299 A 23.510039 23.510041 0 0 0 68.376705 35.337378 A 23.510039 23.510041 0 0 0 66.629525 33.385042 A 23.510039 23.510041 0 0 0 50.000049 26.489339 L 49.999532 26.489339 z M 38.630717 32.500342 L 51.371541 32.500342 C 55.276697 32.500342 58.278682 33.216124 60.37771 34.648014 C 62.476728 36.079905 63.526355 38.097437 63.526355 40.700875 C 63.526355 42.588367 62.883756 44.239993 61.598307 45.655611 C 60.329139 47.071231 58.70207 48.055689 56.716951 48.608919 L 56.716951 48.706588 C 59.206489 49.015746 61.191435 49.935039 62.672144 51.464559 C 64.169122 52.994078 64.917485 54.857232 64.917485 57.053882 C 64.917485 60.259365 63.770629 62.805717 61.476351 64.693209 C 59.182073 66.56443 56.049744 67.500273 52.079508 67.500273 L 38.630717 67.500273 L 38.630717 32.500342 z M 46.514473 38.308773 L 46.514473 46.607491 L 49.980412 46.607491 C 51.60756 46.607491 52.88474 46.217018 53.812219 45.435986 C 54.755958 44.638683 55.227637 43.548462 55.227637 42.165385 C 55.227637 39.59449 53.307848 38.308773 49.467782 38.308773 L 46.514473 38.308773 z M 46.514473 52.465015 L 46.514473 61.691325 L 50.785531 61.691325 C 52.607939 61.691325 54.032006 61.268269 55.057104 60.422152 C 56.098483 59.576035 56.619283 58.420647 56.619283 56.956213 C 56.619283 55.556866 56.106491 54.458627 55.081392 53.661324 C 54.072563 52.864022 52.657031 52.465015 50.834623 52.465015 L 46.514473 52.465015 z M 26.26248 73.726766 L 18.197339 81.792424 A 45 45 0 0 0 50.000049 94.999886 A 45 45 0 0 0 81.792424 81.802759 L 73.741752 73.752087 A 33.585769 33.585772 0 0 1 50.000049 83.586112 A 33.585769 33.585772 0 0 1 26.26248 73.726766 z " />
    <ellipse
       style="fill:url(#linearGradient4010);fill-opacity:1;stroke-width:1.24089"
       id="circle3946"
       cx="1.6021567e-06"
       cy="84.687103"
       rx="34.568161"
       ry="26.693441"
       transform="matrix(-0.70710678,0.70710678,0.70710678,0.70710678,0,0)" />
    <path
       id="path955"
       style="fill:#1e1e1e;fill-opacity:0.8;stroke-width:2.24783"
       d="m -73.400223,14.639884 -11.607561,11.608593 a 33.585769,33.585772 0 0 0 -23.742226,-9.834542 33.585769,33.585772 0 0 0 -23.73707,9.85883 l -11.62359,-11.623063 a 49.999919,49.999919 0 0 0 -14.63942,35.34978 49.999919,49.999919 0 0 0 14.63942,35.350294 l 11.62308,-11.62306 a 33.585769,33.585772 0 0 0 23.73758,9.859347 33.585769,33.585772 0 0 0 23.741706,-9.834025 l 11.608081,11.608078 A 49.999919,49.999919 0 0 0 -58.749959,49.999482 49.999919,49.999919 0 0 0 -73.400223,14.639884 Z m -35.350307,11.849405 h 5.2e-4 a 23.510039,23.510041 0 0 1 16.629477,6.895704 23.510039,23.510041 0 0 1 1.747179,1.952335 23.510039,23.510041 0 0 1 1.518771,2.139921 23.510039,23.510041 0 0 1 0.0124,0.0186 23.510039,23.510041 0 0 1 1.25574,2.271179 23.510039,23.510041 0 0 1 0.02946,0.06305 23.510039,23.510041 0 0 1 0.9958,2.401921 23.510039,23.510041 0 0 1 0.71985,2.495455 23.510039,23.510041 0 0 1 0.01654,0.07131 23.510039,23.510041 0 0 1 0.42892,2.524911 23.510039,23.510041 0 0 1 0.01085,0.09302 23.510039,23.510041 0 0 1 0.144689,2.583305 23.510039,23.510041 0 0 1 -0.150379,2.631881 23.510039,23.510041 0 0 1 -6.75256,13.985709 l 0.01034,0.01034 a 23.510039,23.510041 0 0 1 -16.617597,6.882267 23.510039,23.510041 0 0 1 -16.70234,-6.999056 23.510039,23.510041 0 0 1 -3.58015,-4.661214 23.510039,23.510041 0 0 1 -0.16382,-0.295073 23.510039,23.510041 0 0 1 -1.1684,-2.364713 23.510039,23.510041 0 0 1 -0.13488,-0.305408 23.510039,23.510041 0 0 1 -0.92759,-2.726965 23.510039,23.510041 0 0 1 -0.0734,-0.311092 23.510039,23.510041 0 0 1 -0.48421,-2.426209 23.510039,23.510041 0 0 1 -0.0904,-0.643888 23.510039,23.510041 0 0 1 -0.185,-2.776575 23.510039,23.510041 0 0 1 0.185,-2.776575 23.510039,23.510041 0 0 1 0.0904,-0.643888 23.510039,23.510041 0 0 1 0.48421,-2.426208 23.510039,23.510041 0 0 1 0.0734,-0.311093 23.510039,23.510041 0 0 1 0.92759,-2.726965 23.510039,23.510041 0 0 1 0.13488,-0.305924 23.510039,23.510041 0 0 1 1.1684,-2.364197 23.510039,23.510041 0 0 1 0.16382,-0.295073 23.510039,23.510041 0 0 1 3.58015,-4.661214 23.510039,23.510041 0 0 1 16.70234,-6.999573 z m -11.36882,6.011003 v 34.999931 h 13.4488 c 3.97025,0 7.102567,-0.935841 9.396847,-2.807064 2.294279,-1.887494 3.44113,-4.433841 3.44113,-7.639327 0,-2.196652 -0.74836,-4.059802 -2.24534,-5.589323 -1.48071,-1.529521 -3.46565,-2.448812 -5.955187,-2.757971 v -0.09767 c 1.98512,-0.553231 3.612177,-1.537688 4.881347,-2.953309 1.28545,-1.41562 1.928049,-3.067242 1.928049,-4.954736 0,-2.60344 -1.049619,-4.620968 -3.148639,-6.05286 -2.099027,-1.431892 -5.101007,-2.147673 -9.006177,-2.147673 z m 7.88376,5.808431 h 2.95331 c 3.84007,0 5.75986,1.285715 5.75986,3.856612 0,1.383078 -0.47167,2.473298 -1.41541,3.270602 -0.92749,0.781032 -2.20467,1.171504 -3.83182,1.171504 h -3.46594 z m 0,14.156242 h 4.32015 c 1.82241,0 3.23795,0.399006 4.24678,1.196309 1.0251,0.797304 1.53789,1.895541 1.53789,3.29489 0,1.464435 -0.5208,2.61982 -1.56218,3.465938 -1.0251,0.846118 -2.44917,1.269173 -4.27158,1.269173 h -4.27106 z" />
  </g>
</svg>
