<?xml version="1.0" encoding="UTF-8" standalone="no"?>
<!-- Created with Inkscape (http://www.inkscape.org/) -->

<svg
   width="100mm"
   height="100mm"
   viewBox="0 0 100 100"
   version="1.1"
   id="svg3242"
   inkscape:version="1.2.2 (732a01da63, 2022-12-09)"
   sodipodi:docname="btn-img-view.svg"
   inkscape:export-filename="Svelte\sv-kit\web\src\lib\btn-img-start.png"
   inkscape:export-xdpi="7.6199999"
   inkscape:export-ydpi="7.6199999"
   xmlns:inkscape="http://www.inkscape.org/namespaces/inkscape"
   xmlns:sodipodi="http://sodipodi.sourceforge.net/DTD/sodipodi-0.dtd"
   xmlns:xlink="http://www.w3.org/1999/xlink"
   xmlns="http://www.w3.org/2000/svg"
   xmlns:svg="http://www.w3.org/2000/svg">
  <sodipodi:namedview
     id="namedview3244"
     pagecolor="#ffffff"
     bordercolor="#666666"
     borderopacity="1.0"
     inkscape:showpageshadow="2"
     inkscape:pageopacity="0.0"
     inkscape:pagecheckerboard="true"
     inkscape:deskcolor="#d1d1d1"
     inkscape:document-units="mm"
     showgrid="false"
     inkscape:zoom="0.26362495"
     inkscape:cx="240.8725"
     inkscape:cy="853.48523"
     inkscape:window-width="1920"
     inkscape:window-height="1017"
     inkscape:window-x="1912"
     inkscape:window-y="-8"
     inkscape:window-maximized="1"
     inkscape:current-layer="layer1" />
  <defs
     id="defs3239">
    <linearGradient
       inkscape:collect="always"
       id="linearGradient4008">
      <stop
         style="stop-color:#e6e6e6;stop-opacity:0.60000002;"
         offset="0"
         id="stop4004" />
      <stop
         style="stop-color:#e6e6e6;stop-opacity:0;"
         offset="1"
         id="stop4006" />
    </linearGradient>
    <linearGradient
       inkscape:collect="always"
       xlink:href="#linearGradient4008"
       id="linearGradient4010"
       x1="50.255611"
       y1="117.32954"
       x2="49.88274"
       y2="50.750202"
       gradientUnits="userSpaceOnUse"
       gradientTransform="matrix(0.9276027,0,0,1.0162686,-46.380138,17.375713)" />
  </defs>
  <g
     inkscape:label="Layer 1"
     inkscape:groupmode="layer"
     id="layer1">
    <path
       id="path389"
       style="fill:#f57800;fill-opacity:1;stroke-width:1.08132;stroke-opacity:0.7"
       d="m 50.631485,28.735402 a 44.061941,44.061941 0 0 0 -38.13152,21.987805 40.672561,40.672561 0 0 0 0.02118,0.04444 44.061941,44.061941 0 0 0 -0.01085,0.01809 40.672561,40.672561 0 0 0 1.85054,3.568775 40.672561,40.672561 0 0 0 0.01136,0.02119 40.672561,40.672561 0 0 1 5.2e-4,-5.17e-4 40.672561,40.672561 0 0 0 0.06253,0.101286 40.672561,40.672561 0 0 1 1.97714,-3.451986 37.283181,37.283181 0 0 1 -0.05168,-0.09353 40.672561,40.672561 0 0 1 13.46843,-13.065869 22.030971,22.030971 0 0 0 -0.15141,0.216524 40.672561,40.672561 0 0 1 1.64951,-0.930692 23.725661,23.725661 0 0 0 -3.01945,27.441735 37.283181,37.283181 0 0 0 21.23746,6.671945 37.283181,37.283181 0 0 0 19.42672,-5.511292 23.725661,23.725661 0 0 0 -3.21479,-29.549617 23.725661,23.725661 0 0 0 -2.19263,-1.917713 40.672561,40.672561 0 0 1 13.55111,7.701856 40.672561,40.672561 0 0 1 0.70125,0.612882 40.672561,40.672561 0 0 1 0.99064,0.917774 40.672561,40.672561 0 0 1 1.18649,1.18339 40.672561,40.672561 0 0 1 0.46199,0.487309 40.672561,40.672561 0 0 1 1.5043,1.71049 40.672561,40.672561 0 0 1 0.15658,0.192753 40.672561,40.672561 0 0 1 3.69796,5.321639 40.672561,40.672561 0 0 0 1.68517,-3.73569 44.061941,44.061941 0 0 0 -0.01964,-0.02945 40.672561,40.672561 0 0 0 0.001,-0.0026 44.061941,44.061941 0 0 0 -0.2217,-0.31781 44.061941,44.061941 0 0 0 -1.08727,-1.558045 44.061941,44.061941 0 0 0 -0.5488,-0.721919 44.061941,44.061941 0 0 0 -0.54054,-0.712618 37.283181,37.283181 0 0 1 -0.0062,0.01809 44.061941,44.061941 0 0 0 -34.44441,-16.618623 z m -2.13165,11.402404 a 12.8514,12.8514 0 0 1 9.56789,3.75481 12.8514,12.8514 0 0 1 0,18.175118 12.8514,12.8514 0 0 1 -18.1746,0 12.8514,12.8514 0 0 1 0,-18.175118 12.8514,12.8514 0 0 1 8.60671,-3.75481 z" />
    <path
       id="path16373"
       style="fill:#e6e6e6;fill-opacity:0.5;stroke-width:0.233389"
       d="m 35.84414,35.050294 a 40.672561,40.672561 0 0 0 -6.389863,3.196504 l 11.600255,11.600255 a 3.3893801,3.3893801 0 0 0 0,3.52e-4 3.3893801,3.3893801 0 0 0 4.793533,3.46e-4 3.3893801,3.3893801 0 0 0 0,-4.793533 3.3893801,3.3893801 0 0 0 -3.46e-4,-3.52e-4 z" />
    <path
       id="path16375"
       style="fill:#e6e6e6;fill-opacity:0.5;stroke-width:0.366753"
       d="m 53.552614,51.990198 a 5.3261688,5.3261688 0 0 0 -0.562936,0.0041 5.3261688,5.3261688 0 0 0 -3.444871,1.550085 5.3261688,5.3261688 0 0 0 3.46e-4,7.532545 5.3261688,5.3261688 0 0 1 3.52e-4,3.52e-4 l 9.088942,9.088935 A 37.283181,37.283181 0 0 0 69.218125,65.685124 L 57.077705,53.544697 a 5.3261688,5.3261688 0 0 1 -3.53e-4,-3.46e-4 5.3261688,5.3261688 0 0 0 -3.524738,-1.554295 z" />
    <ellipse
       style="fill:url(#linearGradient4010);fill-opacity:1;stroke-width:1.24089"
       id="circle3946"
       cx="1.6021567e-06"
       cy="84.687103"
       rx="34.568161"
       ry="26.693441"
       transform="matrix(-0.70710678,0.70710678,0.70710678,0.70710678,0,0)" />
    <path
       id="path945"
       style="fill:#1e1e1e;fill-opacity:0.8;stroke-width:1.10736"
       d="m -340.49949,2.0072708 a 50,50 0 0 0 -50.00005,50.0000492 50,50 0 0 0 50.00005,50.00005 50,50 0 0 0 50.00005,-50.00005 50,50 0 0 0 -50.00005,-50.0000492 z m 0.63148,28.7351972 h 0.001 a 44.061941,44.061941 0 0 1 34.44441,16.618624 37.283181,37.283181 0 0 0 0.006,-0.01809 44.061941,44.061941 0 0 1 0.54053,0.712618 44.061941,44.061941 0 0 1 0.54881,0.72192 44.061941,44.061941 0 0 1 1.08727,1.558044 44.061941,44.061941 0 0 1 0.22169,0.31781 40.672561,40.672561 0 0 1 -10e-4,0.0026 44.061941,44.061941 0 0 1 0.0196,0.02946 40.672561,40.672561 0 0 1 -1.68516,3.735689 40.672561,40.672561 0 0 0 -3.69797,-5.321639 40.672561,40.672561 0 0 0 -0.15658,-0.192753 40.672561,40.672561 0 0 0 -1.5043,-1.71049 40.672561,40.672561 0 0 0 -0.46199,-0.487309 40.672561,40.672561 0 0 0 -1.18649,-1.18339 40.672561,40.672561 0 0 0 -0.99064,-0.917774 40.672561,40.672561 0 0 0 -0.70125,-0.612882 40.672561,40.672561 0 0 0 -13.55111,-7.701855 23.725661,23.725661 0 0 1 2.19264,1.917712 23.725661,23.725661 0 0 1 3.21479,29.549617 37.283181,37.283181 0 0 1 -19.42673,5.511292 37.283181,37.283181 0 0 1 -21.23746,-6.671944 23.725661,23.725661 0 0 1 3.01946,-27.441736 40.672561,40.672561 0 0 0 -1.64952,0.930692 22.030971,22.030971 0 0 1 0.15142,-0.216524 40.672561,40.672561 0 0 0 -13.46843,13.065869 37.283181,37.283181 0 0 0 0.0517,0.09354 40.672561,40.672561 0 0 0 -1.97714,3.451985 40.672561,40.672561 0 0 1 -0.0625,-0.101285 40.672561,40.672561 0 0 1 -5.1e-4,5.16e-4 40.672561,40.672561 0 0 1 -0.0114,-0.02119 40.672561,40.672561 0 0 1 -1.85053,-3.568774 44.061941,44.061941 0 0 1 0.0108,-0.01809 40.672561,40.672561 0 0 1 -0.0212,-0.04444 44.061941,44.061941 0 0 1 38.13152,-21.987805 z m -2.13165,11.402405 a 12.8514,12.8514 0 0 0 -8.60671,3.754809 12.8514,12.8514 0 0 0 0,18.175118 12.8514,12.8514 0 0 0 18.1746,0 12.8514,12.8514 0 0 0 0,-18.175118 12.8514,12.8514 0 0 0 -9.56789,-3.754809 z" />
  </g>
</svg>
