<?xml version="1.0" encoding="UTF-8" standalone="no"?>
<!-- Created with Inkscape (http://www.inkscape.org/) -->

<svg
   width="210mm"
   height="55mm"
   viewBox="0 0 210 55"
   version="1.1"
   id="svg5"
   xml:space="preserve"
   inkscape:version="1.2.1 (9c6d41e410, 2022-07-14)"
   sodipodi:docname="vent-medic-logo-aqua.svg"
   inkscape:export-filename="vent-medit-logo-0.7-2.png"
   inkscape:export-xdpi="221.538"
   inkscape:export-ydpi="221.538"
   xmlns:inkscape="http://www.inkscape.org/namespaces/inkscape"
   xmlns:sodipodi="http://sodipodi.sourceforge.net/DTD/sodipodi-0.dtd"
   xmlns="http://www.w3.org/2000/svg"
   xmlns:svg="http://www.w3.org/2000/svg"><sodipodi:namedview
     id="namedview7"
     pagecolor="#7b7b7b"
     bordercolor="#666666"
     borderopacity="1.0"
     inkscape:showpageshadow="false"
     inkscape:pageopacity="0"
     inkscape:pagecheckerboard="true"
     inkscape:deskcolor="#d1d1d1"
     inkscape:document-units="mm"
     showgrid="false"
     inkscape:zoom="0.5"
     inkscape:cx="440"
     inkscape:cy="412"
     inkscape:window-width="1920"
     inkscape:window-height="1017"
     inkscape:window-x="1912"
     inkscape:window-y="1072"
     inkscape:window-maximized="1"
     inkscape:current-layer="text1852"
     borderlayer="true"
     showborder="true" /><defs
     id="defs2" /><g
     inkscape:label="Layer 1"
     inkscape:groupmode="layer"
     id="layer1"><g
       aria-label="VENT"
       transform="scale(0.82095107,1.2180994)"
       id="text1852"
       style="font-weight:300;font-size:20.8216px;font-family:'Segoe UI';-inkscape-font-specification:'Segoe UI Light';letter-spacing:0px;word-spacing:0px;fill:#820000;fill-opacity:0.519757;stroke-width:0.780806"><path
         id="path4752"
         style="fill:#e6e6e6;fill-opacity:0.89999998;stroke:none;stroke-width:0.420723px;stroke-linecap:butt;stroke-linejoin:miter;stroke-opacity:1"
         d="m 42.183833,3.9645935 c -14.47389,0.778542 -19.794929,5.417962 -22.823334,9.4651785 -4.419413,5.370569 -3.8483,8.961494 -12.6876039,3.352755 1.1551758,9.75483 8.0389899,13.341001 14.0441119,15.38203 7.968668,2.978521 13.29676,2.5936 4.974704,8.55094 14.473877,-0.77853 19.794936,-5.41797 22.823334,-9.46517 4.419413,-5.370577 3.848299,-8.961496 12.687604,-3.35276 C 60.047472,18.142746 53.163659,14.556559 47.158537,12.515538 39.189869,9.5370285 33.861778,9.9219365 42.183833,3.9645935 Z m -8.218994,9.1618485 a 13.670443,9.2133406 0 0 1 13.670836,9.213606 13.670443,9.2133406 0 0 1 -13.670836,9.21361 13.670443,9.2133406 0 0 1 -13.670836,-9.21361 13.670443,9.2133406 0 0 1 13.670836,-9.213606 z" /><path
         id="path910"
         style="fill:#f57800;fill-opacity:0.69999999;stroke:none;stroke-width:0.420723px;stroke-linecap:butt;stroke-linejoin:miter;stroke-opacity:1"
         d="m 33.937772,16.661288 a 8.4257145,5.6786001 0 0 0 -8.425951,5.678767 8.4257145,5.6786001 0 0 0 8.425951,5.678748 8.4257145,5.6786001 0 0 0 8.425951,-5.678748 8.4257145,5.6786001 0 0 0 -8.425951,-5.678767 z" /><g
         id="g3827"
         style="fill:#e6e6e6;fill-opacity:0.89999998"
         transform="matrix(1.5901378,0,0,1.5901378,-58.884819,-138.6229)"><path
           d="M 87.424861,104.93543 H 85.719627 L 80.892222,90.356246 h 1.882055 c 3.730741,12.064504 0,0 3.730741,12.064504 h 0.04067 c 3.960339,-12.064504 -0.05697,0 3.903366,-12.064504 h 1.818331 z"
           id="path1904"
           sodipodi:nodetypes="ccccccccc"
           style="fill:#e6e6e6;fill-opacity:0.89999998" /><path
           d="M 94.922401,104.93543 V 90.356246 h 8.478409 v 1.033783 h -6.805233 v 5.628698 h 5.827323 v 1.023617 h -5.827323 v 5.869476 h 6.918523 v 1.02361 z"
           id="path1906"
           sodipodi:nodetypes="ccccccccccccc"
           style="fill:#e6e6e6;fill-opacity:0.89999998" /><path
           d="m 115.54014,104.93543 c -7.35393,-11.763758 0.16117,0 -7.13752,-11.709587 0.0203,11.709587 -0.02,0.01736 0.0203,11.709587 h -1.61079 l -0.0271,-14.579184 h 1.75791 l 7.13889,11.639554 -0.0508,-11.639554 h 1.73166 v 14.579184 z"
           id="path1908"
           sodipodi:nodetypes="ccccccccccc"
           style="fill:#e6e6e6;fill-opacity:0.89999998" /><path
           d="m 125.54125,91.412521 v 13.522909 h -1.63687 V 91.412521 h -4.0882 v -1.056275 h 9.89384 v 1.056275 z"
           id="path1910"
           sodipodi:nodetypes="ccccccccc"
           style="fill:#e6e6e6;fill-opacity:0.89999998" /></g><g
         id="g3839"
         style="fill:#5d5d5d;fill-opacity:1"
         transform="matrix(1.5901378,0,0,1.5901378,-58.884819,-138.6229)"><g
           id="g3832"
           style="fill:#5d5d5d;fill-opacity:1"><path
             id="rect1991"
             style="fill:#5d5d5d;fill-opacity:1;stroke:none;stroke-width:0.970886;stroke-opacity:1"
             d="m 131.73554,90.356378 v 14.578942 h 3.49545 v -8.20943 l 3.19142,6.14594 h 2.02186 l 3.19204,-6.14594 v 8.20943 h 3.37459 V 90.356378 h -3.60246 l -4.0349,8.231918 -4.03491,-8.231918 z" /><path
             id="rect2065"
             style="fill:#5d5d5d;fill-opacity:1;stroke:none;stroke-width:0.759515;stroke-opacity:1"
             d="m 150.10978,90.356378 v 14.578942 h 9.7228 v -2.01979 h -5.90506 v -4.250447 h 4.86958 v -2.192887 h -4.86958 v -3.927173 h 5.90506 v -2.188645 z"
             sodipodi:nodetypes="ccccccccccccc" /><path
             id="rect2089"
             style="fill:#5d5d5d;fill-opacity:1;stroke:none;stroke-width:0.858762;stroke-opacity:1"
             d="m 162.23212,90.356378 v 14.578942 h 6.90844 c 2.18609,-3e-5 4.12957,-1.19427 4.12996,-2.66761 v -9.243298 c -5e-5,-1.473501 -1.94363,-2.668003 -4.12996,-2.668034 z m 3.63899,2.188645 h 2.10178 c 0.80012,2.2e-5 1.73921,0.236979 1.73923,1.268048 v 0.401753 7.263806 c -1.4e-4,1.03096 -0.9392,1.26803 -1.73923,1.26805 h -2.10178 z"
             sodipodi:nodetypes="ccccccccccccccc" /></g><path
           id="path2194"
           style="fill:#5d5d5d;fill-opacity:1;stroke:none;stroke-width:0.858762;stroke-opacity:1"
           d="m 187.27371,90.356378 c -2.18633,3.1e-5 -4.1299,1.194536 -4.12995,2.668034 v 9.243298 c 3.9e-4,1.47334 1.94386,2.66758 4.12995,2.66761 h 1.27531 0.11393 1.27531 c 2.18609,-3e-5 4.12956,-1.19427 4.12995,-2.66761 v -3.342569 h -3.55839 v 2.553489 c -1.4e-4,1.03096 -0.9392,1.49884 -1.73923,1.49884 h -0.10764 -0.11393 -0.10764 c -0.80003,0 -1.73909,-0.46788 -1.73923,-1.49884 v -7.263806 -0.401753 c 2e-5,-1.031066 0.93911,-1.41738 1.73923,-1.41738 h 0.10764 0.11393 0.10764 c 0.80012,0 1.73921,0.386314 1.73923,1.41738 v 0.401753 1.817861 h 3.55839 v -3.008273 c -5e-5,-1.473498 -1.94362,-2.668003 -4.12995,-2.668034 h -1.27531 -0.11393 z"
           sodipodi:nodetypes="sccsccsccccsccsccssccssccccsccs" /></g><path
         id="rect2205"
         style="fill:#f57800;fill-opacity:0.69999999;stroke:none;stroke-width:1.68876;stroke-opacity:1"
         d="m 221.44371,5.0561921 v 5.6086009 l 6.09075,-2.3927968 V 5.0561921 Z m 6.09075,7.2896969 -6.09075,2.392797 v 13.500033 h 6.09075 z" /><g
         id="g2267"
         style="fill:#f57800;fill-opacity:0.60000002;stroke:none"
         transform="matrix(1.5901378,0,0,1.5901378,-58.884819,-138.6229)"><text
           xml:space="preserve"
           style="font-style:normal;font-variant:normal;font-weight:normal;font-stretch:normal;font-size:4.97116px;line-height:1.25;font-family:'Agency FB';-inkscape-font-specification:'Agency FB';letter-spacing:0px;word-spacing:0px;fill:#f57800;fill-opacity:0.60000002;stroke:none;stroke-width:0.145557"
           x="64.742981"
           y="140.60078"
           id="text2233"
           transform="scale(1.2542488,0.79728997)"><tspan
             sodipodi:role="line"
             id="tspan2231"
             style="font-style:normal;font-variant:normal;font-weight:normal;font-stretch:normal;font-family:'Agency FB';-inkscape-font-specification:'Agency FB';fill:#f57800;fill-opacity:0.60000002;stroke:none;stroke-width:0.145557"
             x="64.742981"
             y="140.60078">METHANE</tspan></text><text
           xml:space="preserve"
           style="font-style:normal;font-variant:normal;font-weight:normal;font-stretch:normal;font-size:4.97116px;line-height:1.25;font-family:'Agency FB';-inkscape-font-specification:'Agency FB';letter-spacing:0px;word-spacing:0px;fill:#f57800;fill-opacity:0.60000002;stroke:none;stroke-width:0.145557"
           x="79.839264"
           y="140.60078"
           id="text2237"
           transform="scale(1.2542488,0.79728997)"><tspan
             sodipodi:role="line"
             id="tspan2235"
             style="font-style:normal;font-variant:normal;font-weight:normal;font-stretch:normal;font-family:'Agency FB';-inkscape-font-specification:'Agency FB';fill:#f57800;fill-opacity:0.60000002;stroke:none;stroke-width:0.145557"
             x="79.839264"
             y="140.60078">EMISSIONS</tspan></text><text
           xml:space="preserve"
           style="font-style:normal;font-variant:normal;font-weight:normal;font-stretch:normal;font-size:4.97116px;line-height:1.25;font-family:'Agency FB';-inkscape-font-specification:'Agency FB';letter-spacing:0px;word-spacing:0px;fill:#f57800;fill-opacity:0.60000002;stroke:none;stroke-width:0.145557"
           x="97.376648"
           y="140.60078"
           id="text2241"
           transform="scale(1.2542488,0.79728997)"><tspan
             sodipodi:role="line"
             id="tspan2239"
             style="font-style:normal;font-variant:normal;font-weight:normal;font-stretch:normal;font-family:'Agency FB';-inkscape-font-specification:'Agency FB';fill:#f57800;fill-opacity:0.60000002;stroke:none;stroke-width:0.145557"
             x="97.376648"
             y="140.60078">DETECTION</tspan></text><text
           xml:space="preserve"
           style="font-style:normal;font-variant:normal;font-weight:normal;font-stretch:normal;font-size:4.97116px;line-height:1.25;font-family:'Agency FB';-inkscape-font-specification:'Agency FB';letter-spacing:0px;word-spacing:0px;fill:#f57800;fill-opacity:0.60000002;stroke:none;stroke-width:0.145557"
           x="114.56071"
           y="140.60078"
           id="text2245"
           transform="scale(1.2542488,0.79728997)"><tspan
             sodipodi:role="line"
             id="tspan2243"
             style="font-style:normal;font-variant:normal;font-weight:normal;font-stretch:normal;font-family:'Agency FB';-inkscape-font-specification:'Agency FB';fill:#f57800;fill-opacity:0.60000002;stroke:none;stroke-width:0.145557"
             x="114.56071"
             y="140.60078">AND</tspan></text><text
           xml:space="preserve"
           style="font-style:normal;font-variant:normal;font-weight:normal;font-stretch:normal;font-size:4.97116px;line-height:1.25;font-family:'Agency FB';-inkscape-font-specification:'Agency FB';letter-spacing:0px;word-spacing:0px;fill:#f57800;fill-opacity:0.60000002;stroke:none;stroke-width:0.145557"
           x="121.6913"
           y="140.60078"
           id="text2249"
           transform="scale(1.2542488,0.79728997)"><tspan
             sodipodi:role="line"
             id="tspan2247"
             style="font-style:normal;font-variant:normal;font-weight:normal;font-stretch:normal;font-family:'Agency FB';-inkscape-font-specification:'Agency FB';fill:#f57800;fill-opacity:0.60000002;stroke:none;stroke-width:0.145557"
             x="121.6913"
             y="140.60078">INTELLIGENT</tspan></text><text
           xml:space="preserve"
           style="font-style:normal;font-variant:normal;font-weight:normal;font-stretch:normal;font-size:4.97116px;line-height:1.25;font-family:'Agency FB';-inkscape-font-specification:'Agency FB';letter-spacing:0px;word-spacing:0px;fill:#f57800;fill-opacity:0.60000002;stroke:none;stroke-width:0.145557"
           x="140.93103"
           y="140.60078"
           id="text2253"
           transform="scale(1.2542488,0.79728997)"><tspan
             sodipodi:role="line"
             id="tspan2251"
             style="font-style:normal;font-variant:normal;font-weight:normal;font-stretch:normal;font-family:'Agency FB';-inkscape-font-specification:'Agency FB';fill:#f57800;fill-opacity:0.60000002;stroke:none;stroke-width:0.145557"
             x="140.93103"
             y="140.60078">CAPTURE</tspan></text></g></g></g></svg>
