<?xml version="1.0" encoding="UTF-8" standalone="no"?>
<!-- Created with Inkscape (http://www.inkscape.org/) -->

<svg
   width="210mm"
   height="55mm"
   viewBox="0 0 210 55"
   version="1.1"
   id="svg5"
   xml:space="preserve"
   inkscape:version="1.2.2 (732a01da63, 2022-12-09)"
   sodipodi:docname="vent-medic-logo.svg"
   inkscape:export-filename="vent-medit-logo-0.7-2.png"
   inkscape:export-xdpi="221.538"
   inkscape:export-ydpi="221.538"
   xmlns:inkscape="http://www.inkscape.org/namespaces/inkscape"
   xmlns:sodipodi="http://sodipodi.sourceforge.net/DTD/sodipodi-0.dtd"
   xmlns="http://www.w3.org/2000/svg"
   xmlns:svg="http://www.w3.org/2000/svg"><sodipodi:namedview
     id="namedview7"
     pagecolor="#7b7b7b"
     bordercolor="#666666"
     borderopacity="1.0"
     inkscape:showpageshadow="false"
     inkscape:pageopacity="0"
     inkscape:pagecheckerboard="true"
     inkscape:deskcolor="#d1d1d1"
     inkscape:document-units="mm"
     showgrid="false"
     inkscape:zoom="2"
     inkscape:cx="489"
     inkscape:cy="249.5"
     inkscape:window-width="1920"
     inkscape:window-height="1017"
     inkscape:window-x="-8"
     inkscape:window-y="-8"
     inkscape:window-maximized="1"
     inkscape:current-layer="text1852"
     borderlayer="true"
     showborder="true" /><defs
     id="defs2" /><g
     inkscape:label="Layer 1"
     inkscape:groupmode="layer"
     id="layer1"><g
       aria-label="VENT"
       transform="scale(0.82095107,1.2180994)"
       id="text1852"
       style="font-weight:300;font-size:20.8216px;font-family:'Segoe UI';-inkscape-font-specification:'Segoe UI Light';letter-spacing:0px;word-spacing:0px;fill:#820000;fill-opacity:0.519757;stroke-width:0.780806"><path
         id="path4752"
         style="fill:#e6e6e6;fill-opacity:0.89999998;stroke:none;stroke-width:0.420723px;stroke-linecap:butt;stroke-linejoin:miter;stroke-opacity:1"
         d="m 42.183833,3.9645935 c -14.47389,0.778542 -19.794929,5.417962 -22.823334,9.4651785 -4.419413,5.370569 -3.8483,8.961494 -12.6876039,3.352755 1.1551758,9.75483 8.0389899,13.341001 14.0441119,15.38203 7.968668,2.978521 13.29676,2.5936 4.974704,8.55094 14.473877,-0.77853 19.794936,-5.41797 22.823334,-9.46517 4.419413,-5.370577 3.848299,-8.961496 12.687604,-3.35276 C 60.047472,18.142746 53.163659,14.556559 47.158537,12.515538 39.189869,9.5370285 33.861778,9.9219365 42.183833,3.9645935 Z m -8.218994,9.1618485 a 13.670443,9.2133406 0 0 1 13.670836,9.213606 13.670443,9.2133406 0 0 1 -13.670836,9.21361 13.670443,9.2133406 0 0 1 -13.670836,-9.21361 13.670443,9.2133406 0 0 1 13.670836,-9.213606 z" /><path
         id="path910"
         style="fill:#f57800;fill-opacity:0.69999999;stroke:none;stroke-width:0.420723px;stroke-linecap:butt;stroke-linejoin:miter;stroke-opacity:1"
         d="m 33.937772,16.661288 a 8.4257145,5.6786001 0 0 0 -8.425951,5.678767 8.4257145,5.6786001 0 0 0 8.425951,5.678748 8.4257145,5.6786001 0 0 0 8.425951,-5.678748 8.4257145,5.6786001 0 0 0 -8.425951,-5.678767 z" /><g
         id="g3827"
         style="fill:#e6e6e6;fill-opacity:0.89999998"
         transform="matrix(1.5901378,0,0,1.5901378,-58.884819,-138.6229)"><path
           d="M 87.424861,104.93543 H 85.719627 L 80.892222,90.356246 h 1.882055 c 3.730741,12.064504 0,0 3.730741,12.064504 h 0.04067 c 3.960339,-12.064504 -0.05697,0 3.903366,-12.064504 h 1.818331 z"
           id="path1904"
           sodipodi:nodetypes="ccccccccc"
           style="fill:#e6e6e6;fill-opacity:0.89999998" /><path
           d="M 94.922401,104.93543 V 90.356246 h 8.478409 v 1.033783 h -6.805233 v 5.628698 h 5.827323 v 1.023617 h -5.827323 v 5.869476 h 6.918523 v 1.02361 z"
           id="path1906"
           sodipodi:nodetypes="ccccccccccccc"
           style="fill:#e6e6e6;fill-opacity:0.89999998" /><path
           d="m 115.54014,104.93543 c -7.35393,-11.763758 0.16117,0 -7.13752,-11.709587 0.0203,11.709587 -0.02,0.01736 0.0203,11.709587 h -1.61079 l -0.0271,-14.579184 h 1.75791 l 7.13889,11.639554 -0.0508,-11.639554 h 1.73166 v 14.579184 z"
           id="path1908"
           sodipodi:nodetypes="ccccccccccc"
           style="fill:#e6e6e6;fill-opacity:0.89999998" /><path
           d="m 125.54125,91.412521 v 13.522909 h -1.63687 V 91.412521 h -4.0882 v -1.056275 h 9.89384 v 1.056275 z"
           id="path1910"
           sodipodi:nodetypes="ccccccccc"
           style="fill:#e6e6e6;fill-opacity:0.89999998" /></g><g
         id="g3839"
         style="fill:#5d5d5d;fill-opacity:1"
         transform="matrix(1.5901378,0,0,1.5901378,-58.884819,-138.6229)"><g
           id="g3832"
           style="fill:#5d5d5d;fill-opacity:1"><path
             id="rect1991"
             style="fill:#5d5d5d;fill-opacity:1;stroke:none;stroke-width:0.970886;stroke-opacity:1"
             d="m 131.73554,90.356378 v 14.578942 h 3.49545 v -8.20943 l 3.19142,6.14594 h 2.02186 l 3.19204,-6.14594 v 8.20943 h 3.37459 V 90.356378 h -3.60246 l -4.0349,8.231918 -4.03491,-8.231918 z" /><path
             id="rect2065"
             style="fill:#5d5d5d;fill-opacity:1;stroke:none;stroke-width:0.759515;stroke-opacity:1"
             d="m 150.10978,90.356378 v 14.578942 h 9.7228 v -2.01979 h -5.90506 v -4.250447 h 4.86958 v -2.192887 h -4.86958 v -3.927173 h 5.90506 v -2.188645 z"
             sodipodi:nodetypes="ccccccccccccc" /><path
             id="rect2089"
             style="fill:#5d5d5d;fill-opacity:1;stroke:none;stroke-width:0.858762;stroke-opacity:1"
             d="m 162.23212,90.356378 v 14.578942 h 6.90844 c 2.18609,-3e-5 4.12957,-1.19427 4.12996,-2.66761 v -9.243298 c -5e-5,-1.473501 -1.94363,-2.668003 -4.12996,-2.668034 z m 3.63899,2.188645 h 2.10178 c 0.80012,2.2e-5 1.73921,0.236979 1.73923,1.268048 v 0.401753 7.263806 c -1.4e-4,1.03096 -0.9392,1.26803 -1.73923,1.26805 h -2.10178 z"
             sodipodi:nodetypes="ccccccccccccccc" /></g><path
           id="path2194"
           style="fill:#5d5d5d;fill-opacity:1;stroke:none;stroke-width:0.858762;stroke-opacity:1"
           d="m 187.27371,90.356378 c -2.18633,3.1e-5 -4.1299,1.194536 -4.12995,2.668034 v 9.243298 c 3.9e-4,1.47334 1.94386,2.66758 4.12995,2.66761 h 1.27531 0.11393 1.27531 c 2.18609,-3e-5 4.12956,-1.19427 4.12995,-2.66761 v -3.342569 h -3.55839 v 2.553489 c -1.4e-4,1.03096 -0.9392,1.49884 -1.73923,1.49884 h -0.10764 -0.11393 -0.10764 c -0.80003,0 -1.73909,-0.46788 -1.73923,-1.49884 v -7.263806 -0.401753 c 2e-5,-1.031066 0.93911,-1.41738 1.73923,-1.41738 h 0.10764 0.11393 0.10764 c 0.80012,0 1.73921,0.386314 1.73923,1.41738 v 0.401753 1.817861 h 3.55839 v -3.008273 c -5e-5,-1.473498 -1.94362,-2.668003 -4.12995,-2.668034 h -1.27531 -0.11393 z"
           sodipodi:nodetypes="sccsccsccccsccsccssccssccccsccs" /></g><path
         id="rect2205"
         style="fill:#f57800;fill-opacity:0.69999999;stroke:none;stroke-width:1.68876;stroke-opacity:1"
         d="m 221.44371,5.0561921 v 5.6086009 l 6.09075,-2.3927968 V 5.0561921 Z m 6.09075,7.2896969 -6.09075,2.392797 v 13.500033 h 6.09075 z" /><path
         id="text2233"
         style="font-style:normal;font-variant:normal;font-weight:normal;font-stretch:normal;font-size:7.90483px;line-height:1.25;font-family:'Agency FB';-inkscape-font-specification:'Agency FB';letter-spacing:0px;word-spacing:0px;fill:#f57800;fill-opacity:0.6;stroke:none;stroke-width:0.231456"
         d="M 70.298488 43.650847 L 69.221976 49.691782 L 69.221976 49.707212 L 69.738903 49.707212 L 69.951194 48.363659 L 71.151668 48.363659 L 71.363959 49.707212 L 71.896443 49.707212 L 70.82746 43.650847 L 70.298488 43.650847 z M 136.53885 43.650847 L 135.46234 49.691782 L 135.46234 49.707212 L 135.97927 49.707212 L 136.19156 48.363659 L 137.39203 48.363659 L 137.60432 49.707212 L 138.13681 49.707212 L 137.06782 43.650847 L 136.53885 43.650847 z M 181.82964 43.650847 L 180.75263 49.691782 L 180.75263 49.707212 L 181.27006 49.707212 L 181.48235 48.363659 L 182.68232 48.363659 L 182.89461 49.707212 L 183.4276 49.707212 L 182.35811 43.650847 L 181.82964 43.650847 z M 56.484506 43.666278 L 56.484506 49.707212 L 56.98989 49.707212 L 56.98989 45.881943 C 56.98989 45.83048 56.972214 45.672348 56.93619 45.40731 L 57.924372 49.139461 L 58.032275 49.139461 L 59.020457 45.40731 C 58.984433 45.669775 58.966255 45.827907 58.966255 45.881943 L 58.966255 49.707212 L 59.472141 49.707212 L 59.472141 43.666278 L 58.973783 43.666278 L 57.99363 47.595839 C 57.983338 47.673034 57.978073 47.730705 57.978073 47.769303 C 57.972926 47.674095 57.967661 47.616424 57.962515 47.595839 L 56.982362 43.666278 L 56.484506 43.666278 z M 60.436735 43.666278 L 60.436735 49.707212 L 62.420629 49.707212 L 62.420629 49.232047 L 60.973235 49.232047 L 60.973235 46.878035 L 62.270068 46.878035 L 62.270068 46.39542 L 60.973235 46.39542 L 60.973235 44.141443 L 62.397543 44.141443 L 62.397543 43.666278 L 60.436735 43.666278 z M 62.926514 43.666278 L 62.926514 44.141443 L 63.868023 44.141443 L 63.868023 49.707212 L 64.404523 49.707212 L 64.404523 44.141443 L 65.339005 44.141443 L 65.339005 43.666278 L 62.926514 43.666278 z M 65.967849 43.666278 L 65.967849 49.707212 L 66.504348 49.707212 L 66.504348 46.804605 L 67.959772 46.804605 L 67.959772 49.707212 L 68.496272 49.707212 L 68.496272 43.666278 L 67.959772 43.666278 L 67.959772 46.32199 L 66.504348 46.32199 L 66.504348 43.666278 L 65.967849 43.666278 z M 72.622148 43.666278 L 72.622148 49.707212 L 73.128033 49.707212 L 73.128033 45.264175 L 74.741045 49.707212 L 75.111927 49.707212 L 75.111927 43.666278 L 74.606042 43.666278 L 74.606042 48.031629 L 73.023644 43.666278 L 72.622148 43.666278 z M 76.076522 43.666278 L 76.076522 49.707212 L 78.060415 49.707212 L 78.060415 49.232047 L 76.613021 49.232047 L 76.613021 46.878035 L 77.909854 46.878035 L 77.909854 46.39542 L 76.613021 46.39542 L 76.613021 44.141443 L 78.037329 44.141443 L 78.037329 43.666278 L 76.076522 43.666278 z M 80.489468 43.666278 L 80.489468 49.707212 L 82.473361 49.707212 L 82.473361 49.232047 L 81.025967 49.232047 L 81.025967 46.878035 L 82.3228 46.878035 L 82.3228 46.39542 L 81.025967 46.39542 L 81.025967 44.141443 L 82.450275 44.141443 L 82.450275 43.666278 L 80.489468 43.666278 z M 83.310983 43.666278 L 83.310983 49.707212 L 83.816868 49.707212 L 83.816868 45.881943 C 83.816868 45.83048 83.798691 45.672348 83.762666 45.40731 L 84.750849 49.139461 L 84.858751 49.139461 L 85.846934 45.40731 C 85.81091 45.669775 85.792732 45.827907 85.792732 45.881943 L 85.792732 49.707212 L 86.298617 49.707212 L 86.298617 43.666278 L 85.800762 43.666278 L 84.820107 47.595839 C 84.809815 47.673034 84.805051 47.730705 84.805051 47.769303 C 84.799905 47.674095 84.79464 47.616424 84.789493 47.595839 L 83.808839 43.666278 L 83.310983 43.666278 z M 87.294328 43.666278 L 87.294328 49.707212 L 87.830828 49.707212 L 87.830828 43.666278 L 87.294328 43.666278 z M 89.247608 43.666278 C 89.121522 43.666278 89.017284 43.706232 88.934942 43.786 C 88.855174 43.865769 88.814995 43.969065 88.814995 44.095151 L 88.814995 45.318449 C 88.814995 45.485706 88.872849 45.6387 88.988643 45.777652 L 90.656358 47.792716 L 90.656358 49.232047 L 89.351495 49.232047 L 89.351495 47.746423 L 88.814995 47.746423 L 88.814995 49.27834 C 88.814995 49.404426 88.855174 49.507721 88.934942 49.58749 C 89.017284 49.667259 89.121522 49.707212 89.247608 49.707212 L 90.768275 49.707212 C 90.894361 49.707212 90.995715 49.667259 91.07291 49.58749 C 91.152679 49.507721 91.192857 49.404426 91.192857 49.27834 L 91.192857 47.881576 C 91.192857 47.714319 91.137385 47.563629 91.026738 47.429823 L 89.351495 45.414759 L 89.351495 44.141443 L 90.656358 44.141443 L 90.656358 45.499895 L 91.192857 45.499895 L 91.192857 44.095151 C 91.192857 43.969065 91.152679 43.865769 91.07291 43.786 C 90.995715 43.706232 90.894361 43.666278 90.768275 43.666278 L 89.247608 43.666278 z M 92.55142 43.666278 C 92.425334 43.666278 92.321097 43.706232 92.238755 43.786 C 92.158986 43.865769 92.11931 43.969065 92.11931 44.095151 L 92.11931 45.318449 C 92.11931 45.485706 92.177164 45.6387 92.292957 45.777652 L 93.96017 47.792716 L 93.96017 49.232047 L 92.655809 49.232047 L 92.655809 47.746423 L 92.11931 47.746423 L 92.11931 49.27834 C 92.11931 49.404426 92.158986 49.507721 92.238755 49.58749 C 92.321097 49.667259 92.425334 49.707212 92.55142 49.707212 L 94.072088 49.707212 C 94.198174 49.707212 94.300029 49.667259 94.377225 49.58749 C 94.456993 49.507721 94.49667 49.404426 94.49667 49.27834 L 94.49667 47.881576 C 94.49667 47.714319 94.441198 47.563629 94.330551 47.429823 L 92.655809 45.414759 L 92.655809 44.141443 L 93.96017 44.141443 L 93.96017 45.499895 L 94.49667 45.499895 L 94.49667 44.095151 C 94.49667 43.969065 94.456993 43.865769 94.377225 43.786 C 94.300029 43.706232 94.198174 43.666278 94.072088 43.666278 L 92.55142 43.666278 z M 95.477325 43.666278 L 95.477325 49.707212 L 96.013824 49.707212 L 96.013824 43.666278 L 95.477325 43.666278 z M 97.449675 43.666278 C 97.323589 43.666278 97.220292 43.706232 97.140523 43.786 C 97.060754 43.865769 97.021078 43.969065 97.021078 44.095151 L 97.021078 49.27834 C 97.021078 49.404426 97.060754 49.507721 97.140523 49.58749 C 97.220292 49.667259 97.323589 49.707212 97.449675 49.707212 L 99.139975 49.707212 C 99.266061 49.707212 99.368856 49.667259 99.448625 49.58749 C 99.530967 49.507721 99.572587 49.404426 99.572587 49.27834 L 99.572587 44.095151 C 99.572587 43.969065 99.530967 43.865769 99.448625 43.786 C 99.368856 43.706232 99.266061 43.666278 99.139975 43.666278 L 97.449675 43.666278 z M 100.53718 43.666278 L 100.53718 49.707212 L 101.04307 49.707212 L 101.04307 45.264175 L 102.65658 49.707212 L 103.02696 49.707212 L 103.02696 43.666278 L 102.52108 43.666278 L 102.52108 48.031629 L 100.93868 43.666278 L 100.53718 43.666278 z M 104.40108 43.666278 C 104.275 43.666278 104.17076 43.706232 104.08842 43.786 C 104.00865 43.865769 103.96847 43.969065 103.96847 44.095151 L 103.96847 45.318449 C 103.96847 45.485706 104.02632 45.6387 104.14212 45.777652 L 105.80983 47.792716 L 105.80983 49.232047 L 104.50497 49.232047 L 104.50497 47.746423 L 103.96847 47.746423 L 103.96847 49.27834 C 103.96847 49.404426 104.00865 49.507721 104.08842 49.58749 C 104.17076 49.667259 104.275 49.707212 104.40108 49.707212 L 105.92175 49.707212 C 106.04783 49.707212 106.14969 49.667259 106.22689 49.58749 C 106.30665 49.507721 106.34633 49.404426 106.34633 49.27834 L 106.34633 47.881576 C 106.34633 47.714319 106.29086 47.563629 106.18021 47.429823 L 104.50497 45.414759 L 104.50497 44.141443 L 105.80983 44.141443 L 105.80983 45.499895 L 106.34633 45.499895 L 106.34633 44.095151 C 106.34633 43.969065 106.30665 43.865769 106.22689 43.786 C 106.14969 43.706232 106.04783 43.666278 105.92175 43.666278 L 104.40108 43.666278 z M 108.3764 43.666278 L 108.3764 49.707212 L 109.75805 49.707212 C 110.07712 49.707212 110.34107 49.605601 110.5495 49.402319 C 110.7605 49.196464 110.86618 48.933885 110.86618 48.614811 L 110.86618 44.75868 C 110.86618 44.439605 110.76194 44.17871 110.55351 43.975428 C 110.34508 43.769573 110.07969 43.666278 109.75805 43.666278 L 108.3764 43.666278 z M 111.80768 43.666278 L 111.80768 49.707212 L 113.79158 49.707212 L 113.79158 49.232047 L 112.34418 49.232047 L 112.34418 46.878035 L 113.64102 46.878035 L 113.64102 46.39542 L 112.34418 46.39542 L 112.34418 44.141443 L 113.76849 44.141443 L 113.76849 43.666278 L 111.80768 43.666278 z M 114.29746 43.666278 L 114.29746 44.141443 L 115.23897 44.141443 L 115.23897 49.707212 L 115.77547 49.707212 L 115.77547 44.141443 L 116.70995 44.141443 L 116.70995 43.666278 L 114.29746 43.666278 z M 117.3388 43.666278 L 117.3388 49.707212 L 119.32269 49.707212 L 119.32269 49.232047 L 117.8753 49.232047 L 117.8753 46.878035 L 119.17213 46.878035 L 119.17213 46.39542 L 117.8753 46.39542 L 117.8753 44.141443 L 119.29961 44.141443 L 119.29961 43.666278 L 117.3388 43.666278 z M 120.58891 43.666278 C 120.46282 43.666278 120.36003 43.706232 120.28026 43.786 C 120.20049 43.865769 120.16031 43.969065 120.16031 44.095151 L 120.16031 49.27834 C 120.16031 49.404426 120.20049 49.507721 120.28026 49.58749 C 120.36003 49.667259 120.46282 49.707212 120.58891 49.707212 L 122.14421 49.707212 C 122.27029 49.707212 122.37453 49.667259 122.45687 49.58749 C 122.53921 49.507721 122.58033 49.404426 122.58033 49.27834 L 122.58033 47.746423 L 122.04032 47.746423 L 122.04032 49.232047 L 120.69681 49.232047 L 120.69681 44.141443 L 122.04032 44.141443 L 122.04032 45.499895 L 122.58033 45.499895 L 122.58033 44.095151 C 122.58033 43.969065 122.53921 43.865769 122.45687 43.786 C 122.37453 43.706232 122.27029 43.666278 122.14421 43.666278 L 120.58891 43.666278 z M 123.18659 43.666278 L 123.18659 44.141443 L 124.1281 44.141443 L 124.1281 49.707212 L 124.6646 49.707212 L 124.6646 44.141443 L 125.59858 44.141443 L 125.59858 43.666278 L 123.18659 43.666278 z M 126.25904 43.666278 L 126.25904 49.707212 L 126.79554 49.707212 L 126.79554 43.666278 L 126.25904 43.666278 z M 128.23139 43.666278 C 128.10531 43.666278 128.00201 43.706232 127.92224 43.786 C 127.84247 43.865769 127.8028 43.969065 127.8028 44.095151 L 127.8028 49.27834 C 127.8028 49.404426 127.84247 49.507721 127.92224 49.58749 C 128.00201 49.667259 128.10531 49.707212 128.23139 49.707212 L 129.92169 49.707212 C 130.04778 49.707212 130.15057 49.667259 130.23034 49.58749 C 130.31268 49.507721 130.3543 49.404426 130.3543 49.27834 L 130.3543 44.095151 C 130.3543 43.969065 130.31268 43.865769 130.23034 43.786 C 130.15057 43.706232 130.04778 43.666278 129.92169 43.666278 L 128.23139 43.666278 z M 131.3189 43.666278 L 131.3189 49.707212 L 131.82478 49.707212 L 131.82478 45.264175 L 133.4378 49.707212 L 133.80868 49.707212 L 133.80868 43.666278 L 133.30279 43.666278 L 133.30279 48.031629 L 131.7204 43.666278 L 131.3189 43.666278 z M 138.86251 43.666278 L 138.86251 49.707212 L 139.3684 49.707212 L 139.3684 45.264175 L 140.98191 49.707212 L 141.35229 49.707212 L 141.35229 43.666278 L 140.84641 43.666278 L 140.84641 48.031629 L 139.26401 43.666278 L 138.86251 43.666278 z M 142.31739 43.666278 L 142.31739 49.707212 L 143.69904 49.707212 C 144.01811 49.707212 144.28156 49.605601 144.48998 49.402319 C 144.70099 49.196464 144.80667 48.933885 144.80667 48.614811 L 144.80667 44.75868 C 144.80667 44.439605 144.70243 44.17871 144.494 43.975428 C 144.28557 43.769573 144.02069 43.666278 143.69904 43.666278 L 142.31739 43.666278 z M 147.0711 43.666278 L 147.0711 49.707212 L 147.6076 49.707212 L 147.6076 43.666278 L 147.0711 43.666278 z M 148.61486 43.666278 L 148.61486 49.707212 L 149.12074 49.707212 L 149.12074 45.264175 L 150.73375 49.707212 L 151.10464 49.707212 L 151.10464 43.666278 L 150.59875 43.666278 L 150.59875 48.031629 L 149.01635 43.666278 L 148.61486 43.666278 z M 151.73749 43.666278 L 151.73749 44.141443 L 152.67951 44.141443 L 152.67951 49.707212 L 153.216 49.707212 L 153.216 44.141443 L 154.14999 44.141443 L 154.14999 43.666278 L 151.73749 43.666278 z M 154.77883 43.666278 L 154.77883 49.707212 L 156.76272 49.707212 L 156.76272 49.232047 L 155.31533 49.232047 L 155.31533 46.878035 L 156.61216 46.878035 L 156.61216 46.39542 L 155.31533 46.39542 L 155.31533 44.141443 L 156.73964 44.141443 L 156.73964 43.666278 L 154.77883 43.666278 z M 157.60034 43.666278 L 157.60034 49.707212 L 159.53054 49.707212 L 159.53054 49.232047 L 158.13684 49.232047 L 158.13684 43.666278 L 157.60034 43.666278 z M 160.26377 43.666278 L 160.26377 49.707212 L 162.19346 49.707212 L 162.19346 49.232047 L 160.80027 49.232047 L 160.80027 43.666278 L 160.26377 43.666278 z M 162.95781 43.666278 L 162.95781 49.707212 L 163.49431 49.707212 L 163.49431 43.666278 L 162.95781 43.666278 z M 164.93016 43.666278 C 164.80408 43.666278 164.70128 43.706232 164.62151 43.786 C 164.54174 43.865769 164.50156 43.969065 164.50156 44.095151 L 164.50156 49.27834 C 164.50156 49.404426 164.54174 49.507721 164.62151 49.58749 C 164.70128 49.667259 164.80408 49.707212 164.93016 49.707212 L 166.51657 49.707212 C 166.64266 49.707212 166.74546 49.667259 166.82522 49.58749 C 166.90499 49.507721 166.94517 49.404426 166.94517 49.27834 L 166.94517 46.681158 L 165.76025 46.681158 L 165.76025 47.144085 L 166.40466 47.144085 L 166.40466 49.232047 L 165.03806 49.232047 L 165.03806 44.141443 L 166.40466 44.141443 L 166.40466 45.499895 L 166.94517 45.499895 L 166.94517 44.095151 C 166.94517 43.969065 166.90499 43.865769 166.82522 43.786 C 166.74546 43.706232 166.64266 43.666278 166.51657 43.666278 L 164.93016 43.666278 z M 167.90224 43.666278 L 167.90224 49.707212 L 169.88613 49.707212 L 169.88613 49.232047 L 168.43874 49.232047 L 168.43874 46.878035 L 169.73557 46.878035 L 169.73557 46.39542 L 168.43874 46.39542 L 168.43874 44.141443 L 169.86305 44.141443 L 169.86305 43.666278 L 167.90224 43.666278 z M 170.72375 43.666278 L 170.72375 49.707212 L 171.22914 49.707212 L 171.22914 45.264175 L 172.84265 49.707212 L 173.21353 49.707212 L 173.21353 43.666278 L 172.70765 43.666278 L 172.70765 48.031629 L 171.12525 43.666278 L 170.72375 43.666278 z M 173.84639 43.666278 L 173.84639 44.141443 L 174.7879 44.141443 L 174.7879 49.707212 L 175.3244 49.707212 L 175.3244 44.141443 L 176.25888 44.141443 L 176.25888 43.666278 L 173.84639 43.666278 z M 178.0626 43.666278 C 177.93652 43.666278 177.83322 43.706232 177.75345 43.786 C 177.67368 43.865769 177.63401 43.969065 177.63401 44.095151 L 177.63401 49.27834 C 177.63401 49.404426 177.67368 49.507721 177.75345 49.58749 C 177.83322 49.667259 177.93652 49.707212 178.0626 49.707212 L 179.6179 49.707212 C 179.74399 49.707212 179.84822 49.667259 179.93056 49.58749 C 180.01291 49.507721 180.05402 49.404426 180.05402 49.27834 L 180.05402 47.746423 L 179.51351 47.746423 L 179.51351 49.232047 L 178.17051 49.232047 L 178.17051 44.141443 L 179.51351 44.141443 L 179.51351 45.499895 L 180.05402 45.499895 L 180.05402 44.095151 C 180.05402 43.969065 180.01291 43.865769 179.93056 43.786 C 179.84822 43.706232 179.74399 43.666278 179.6179 43.666278 L 178.0626 43.666278 z M 184.1533 43.666278 L 184.1533 49.707212 L 184.6898 49.707212 L 184.6898 47.310101 L 186.11411 47.310101 C 186.2402 47.310101 186.34299 47.270147 186.42276 47.190378 C 186.5051 47.108036 186.54622 47.004121 186.54622 46.878035 L 186.54622 44.095151 C 186.54622 43.969065 186.5051 43.865769 186.42276 43.786 C 186.34299 43.706232 186.2402 43.666278 186.11411 43.666278 L 184.1533 43.666278 z M 187.06315 43.666278 L 187.06315 44.141443 L 188.00516 44.141443 L 188.00516 49.707212 L 188.54166 49.707212 L 188.54166 44.141443 L 189.47564 44.141443 L 189.47564 43.666278 L 187.06315 43.666278 z M 190.10498 43.666278 L 190.10498 49.27834 C 190.10498 49.404426 190.14466 49.507721 190.22443 49.58749 C 190.3042 49.667259 190.40749 49.707212 190.53358 49.707212 L 192.17771 49.707212 C 192.30379 49.707212 192.40659 49.667259 192.48636 49.58749 C 192.5687 49.507721 192.60982 49.404426 192.60982 49.27834 L 192.60982 43.666278 L 192.07332 43.666278 L 192.07332 49.232047 L 190.64148 49.232047 L 190.64148 43.666278 L 190.10498 43.666278 z M 193.57491 43.666278 L 193.57491 49.707212 L 194.11141 49.707212 L 194.11141 44.141443 L 195.48905 44.141443 L 195.48905 46.364558 L 194.53198 46.364558 L 194.45871 46.472575 L 195.58189 49.707212 L 196.14549 49.707212 C 195.80069 48.739695 195.4545 47.774426 195.10712 46.812055 C 195.14058 46.812055 195.19461 46.81489 195.26923 46.820036 C 195.34385 46.822609 195.40077 46.823761 195.43936 46.823761 C 195.83049 46.823761 196.02605 46.678209 196.02605 46.387439 L 196.02605 44.095151 C 196.02605 43.969065 195.98587 43.865769 195.9061 43.786 C 195.82633 43.706232 195.72354 43.666278 195.59745 43.666278 L 193.57491 43.666278 z M 196.94849 43.666278 L 196.94849 49.707212 L 198.93238 49.707212 L 198.93238 49.232047 L 197.48499 49.232047 L 197.48499 46.878035 L 198.78182 46.878035 L 198.78182 46.39542 L 197.48499 46.39542 L 197.48499 44.141443 L 198.90929 44.141443 L 198.90929 43.666278 L 196.94849 43.666278 z M 97.557577 44.141443 L 99.036087 44.141443 L 99.036087 49.232047 L 97.557577 49.232047 L 97.557577 44.141443 z M 108.9129 44.141443 L 109.65817 44.141443 C 109.85631 44.141443 110.01696 44.203102 110.14047 44.326614 C 110.26656 44.447554 110.32968 44.606837 110.32968 44.804973 L 110.32968 48.560536 C 110.32968 48.768964 110.26367 48.933918 110.13244 49.054858 C 110.00378 49.173224 109.83549 49.232047 109.62706 49.232047 L 108.9129 49.232047 L 108.9129 44.141443 z M 128.33929 44.141443 L 129.8178 44.141443 L 129.8178 49.232047 L 128.33929 49.232047 L 128.33929 44.141443 z M 142.85389 44.141443 L 143.59866 44.141443 C 143.7968 44.141443 143.95745 44.203102 144.08096 44.326614 C 144.20705 44.447554 144.27017 44.606837 144.27017 44.804973 L 144.27017 48.560536 C 144.27017 48.768964 144.20466 48.933918 144.07343 49.054858 C 143.94477 49.173224 143.77598 49.232047 143.56755 49.232047 L 142.85389 49.232047 L 142.85389 44.141443 z M 184.6898 44.141443 L 186.00972 44.141443 L 186.00972 46.83121 L 184.6898 46.83121 L 184.6898 44.141443 z M 70.553438 44.616077 L 71.081908 47.889026 L 70.020954 47.889026 L 70.553438 44.616077 z M 136.7938 44.616077 L 137.32277 47.889026 L 136.26132 47.889026 L 136.7938 44.616077 z M 182.08409 44.616077 L 182.61306 47.889026 L 181.55161 47.889026 L 182.08409 44.616077 z "
         transform="scale(1.2542488,0.79728997)" /></g></g></svg>
